<svg version="1.1" xmlns="http://www.w3.org/2000/svg" xmlns:xlink="http://www.w3.org/1999/xlink" stroke-linecap="round" stroke-linejoin="round" stroke-width="0" fill-rule="evenodd" clip-rule="evenodd" id="HxRwrdzPqYnQLmd6FvdB_top" viewBox="0 0 34000.43 89999.81" width="34.00043mm" height="89.99981mm" class="w-100 h-100"><defs><style>.HxRwrdzPqYnQLmd6FvdB_fr4 {color: #666666;}
.HxRwrdzPqYnQLmd6FvdB_cu {color: #cccccc;}
.HxRwrdzPqYnQLmd6FvdB_cf {color: #cc9933;}
.HxRwrdzPqYnQLmd6FvdB_sm {color: #004200; opacity: 0.75;}
.HxRwrdzPqYnQLmd6FvdB_ss {color: #ffffff;}
.HxRwrdzPqYnQLmd6FvdB_sp {color: #999999;}
.HxRwrdzPqYnQLmd6FvdB_out {color: #000000;}</style><g id="VB5SCaGkG7s3oUwiYnNq_pad-10"><circle cx="850" cy="-600" r="101.6"/><circle cx="850" cy="600" r="101.6"/><circle cx="-850" cy="600" r="101.6"/><circle cx="-850" cy="-600" r="101.6"/><polygon points="951.6,-600 951.6,600 748.4,600 748.4,-600"/><polygon points="850,498.4 -850,498.4 -850,701.6 850,701.6"/><polygon points="-748.4,600 -748.4,-600 -951.6,-600 -951.6,600"/><polygon points="-850,-701.6 850,-701.6 850,-498.4 -850,-498.4"/><polygon points="850,-600 850,600 -850,600 -850,-600"/></g><rect x="-849.9983" y="-599.9988" width="1699.9966" height="1199.9976" rx="599.9988" ry="599.9988" id="VB5SCaGkG7s3oUwiYnNq_pad-11"/><circle cx="0" cy="0" r="1041.4" id="VB5SCaGkG7s3oUwiYnNq_pad-12"/><circle cx="0" cy="0" r="1401.6" id="VB5SCaGkG7s3oUwiYnNq_pad-13"/><g id="VB5SCaGkG7s3oUwiYnNq_pad-14"><circle cx="-875" cy="-875" r="101.6"/><circle cx="875" cy="-875" r="101.6"/><circle cx="875" cy="875" r="101.6"/><circle cx="-875" cy="875" r="101.6"/><polygon points="-875,-976.6 875,-976.6 875,-773.4 -875,-773.4"/><polygon points="976.6,-875 976.6,875 773.4,875 773.4,-875"/><polygon points="875,773.4 -875,773.4 -875,976.6 875,976.6"/><polygon points="-773.4,875 -773.4,-875 -976.6,-875 -976.6,875"/><polygon points="-875,-875 875,-875 875,875 -875,875"/></g><circle cx="0" cy="0" r="976.6" id="VB5SCaGkG7s3oUwiYnNq_pad-15"/><circle cx="0" cy="0" r="990.6" id="VB5SCaGkG7s3oUwiYnNq_pad-16"/><g id="VB5SCaGkG7s3oUwiYnNq_pad-17"><circle cx="1099.8" cy="1050.4" r="101.6"/><circle cx="-1099.8" cy="1050.4" r="101.6"/><circle cx="-1099.8" cy="-1050.4" r="101.6"/><circle cx="1099.8" cy="-1050.4" r="101.6"/><polygon points="1099.8,948.8 -1099.8,948.8 -1099.8,1152 1099.8,1152"/><polygon points="-998.2,1050.4 -998.2,-1050.4 -1201.4,-1050.4 -1201.4,1050.4"/><polygon points="-1099.8,-1152 1099.8,-1152 1099.8,-948.8 -1099.8,-948.8"/><polygon points="1201.4,-1050.4 1201.4,1050.4 998.2,1050.4 998.2,-1050.4"/><polygon points="1099.8,1050.4 -1099.8,1050.4 -1099.8,-1050.4 1099.8,-1050.4"/></g><circle cx="0" cy="0" r="1201.6" id="VB5SCaGkG7s3oUwiYnNq_pad-18"/><circle cx="0" cy="0" r="1101.6" id="VB5SCaGkG7s3oUwiYnNq_pad-19"/><g id="VB5SCaGkG7s3oUwiYnNq_pad-20"><circle cx="889" cy="889" r="101.6"/><circle cx="889" cy="-889" r="101.6"/><circle cx="-889" cy="-889" r="101.6"/><circle cx="-889" cy="889" r="101.6"/><polygon points="990.6,889 990.6,-889 787.4,-889 787.4,889"/><polygon points="889,-990.6 -889,-990.6 -889,-787.4 889,-787.4"/><polygon points="-787.4,-889 -787.4,889 -990.6,889 -990.6,-889"/><polygon points="-889,787.4 889,787.4 889,990.6 -889,990.6"/><polygon points="889,889 889,-889 -889,-889 -889,889"/></g><g id="VB5SCaGkG7s3oUwiYnNq_pad-21"><circle cx="750.6" cy="750.6" r="101.6"/><circle cx="750.6" cy="-750.6" r="101.6"/><circle cx="-750.6" cy="-750.6" r="101.6"/><circle cx="-750.6" cy="750.6" r="101.6"/><polygon points="852.2,750.6 852.2,-750.6 649,-750.6 649,750.6"/><polygon points="750.6,-852.2 -750.6,-852.2 -750.6,-649 750.6,-649"/><polygon points="-649,-750.6 -649,750.6 -852.2,750.6 -852.2,-750.6"/><polygon points="-750.6,649 750.6,649 750.6,852.2 -750.6,852.2"/><polygon points="750.6,750.6 750.6,-750.6 -750.6,-750.6 -750.6,750.6"/></g><circle cx="0" cy="0" r="751.6" id="VB5SCaGkG7s3oUwiYnNq_pad-22"/><circle cx="0" cy="0" r="927.1" id="VB5SCaGkG7s3oUwiYnNq_pad-23"/><g id="VB5SCaGkG7s3oUwiYnNq_pad-24"><circle cx="-1099.8" cy="1050.4" r="101.6"/><circle cx="1099.8" cy="1050.4" r="101.6"/><circle cx="1099.8" cy="-1050.4" r="101.6"/><circle cx="-1099.8" cy="-1050.4" r="101.6"/><polygon points="-1099.8,948.8 1099.8,948.8 1099.8,1152 -1099.8,1152"/><polygon points="1201.4,1050.4 1201.4,-1050.4 998.2,-1050.4 998.2,1050.4"/><polygon points="1099.8,-1152 -1099.8,-1152 -1099.8,-948.8 1099.8,-948.8"/><polygon points="-998.2,-1050.4 -998.2,1050.4 -1201.4,1050.4 -1201.4,-1050.4"/><polygon points="-1099.8,1050.4 1099.8,1050.4 1099.8,-1050.4 -1099.8,-1050.4"/></g><polygon points="850,-600 850,600 -850,600 -850,-600" id="mF8zjP67BRB9Uu2W0RJs_pad-11"/><rect x="-849.9983" y="-599.9988" width="1699.9966" height="1199.9976" rx="599.9988" ry="599.9988" id="mF8zjP67BRB9Uu2W0RJs_pad-12"/><circle cx="0" cy="0" r="939.8" id="mF8zjP67BRB9Uu2W0RJs_pad-13"/><circle cx="0" cy="0" r="1300" id="mF8zjP67BRB9Uu2W0RJs_pad-14"/><rect x="-875" y="-875" width="1750" height="1750" id="mF8zjP67BRB9Uu2W0RJs_pad-15"/><circle cx="0" cy="0" r="875" id="mF8zjP67BRB9Uu2W0RJs_pad-16"/><circle cx="0" cy="0" r="889" id="mF8zjP67BRB9Uu2W0RJs_pad-17"/><rect x="-1099.8" y="-1050.4" width="2199.6" height="2100.8" id="mF8zjP67BRB9Uu2W0RJs_pad-18"/><circle cx="0" cy="0" r="1100" id="mF8zjP67BRB9Uu2W0RJs_pad-19"/><circle cx="0" cy="0" r="1000" id="mF8zjP67BRB9Uu2W0RJs_pad-20"/><rect x="-889" y="-889" width="1778" height="1778" id="mF8zjP67BRB9Uu2W0RJs_pad-21"/><rect x="-750.55" y="-750.55" width="1501.1" height="1501.1" id="mF8zjP67BRB9Uu2W0RJs_pad-22"/><circle cx="0" cy="0" r="650" id="mF8zjP67BRB9Uu2W0RJs_pad-23"/><circle cx="0" cy="0" r="825.5" id="mF8zjP67BRB9Uu2W0RJs_pad-24"/><circle cx="0" cy="0" r="305" id="mF8zjP67BRB9Uu2W0RJs_pad-25"/><circle cx="0" cy="0" r="155" id="WUjmOoWWfUto-o8JtdHt_pad-1"/><circle cx="0" cy="0" r="356" id="WUjmOoWWfUto-o8JtdHt_pad-3"/><circle cx="0" cy="0" r="400" id="WUjmOoWWfUto-o8JtdHt_pad-4"/><circle cx="0" cy="0" r="450" id="WUjmOoWWfUto-o8JtdHt_pad-5"/><circle cx="0" cy="0" r="450.5" id="WUjmOoWWfUto-o8JtdHt_pad-6"/><circle cx="0" cy="0" r="457.5" id="WUjmOoWWfUto-o8JtdHt_pad-7"/><circle cx="0" cy="0" r="500.5" id="WUjmOoWWfUto-o8JtdHt_pad-9"/><circle cx="0" cy="0" r="599.5" id="WUjmOoWWfUto-o8JtdHt_pad-10"/><circle cx="0" cy="0" r="600" id="WUjmOoWWfUto-o8JtdHt_pad-11"/><circle cx="0" cy="0" r="800" id="WUjmOoWWfUto-o8JtdHt_pad-12"/><circle cx="0" cy="0" r="1250.5" id="vYFvpR1jYWTv1zT8oTfw_pad-1"/><g id="HxRwrdzPqYnQLmd6FvdB_top_soldermask"><use xlink:href="#VB5SCaGkG7s3oUwiYnNq_pad-10" x="31358.9" y="14613.35"/><use xlink:href="#VB5SCaGkG7s3oUwiYnNq_pad-11" x="31358.84" y="16613.37"/><use xlink:href="#VB5SCaGkG7s3oUwiYnNq_pad-11" x="31358.84" y="18613.37"/><use xlink:href="#VB5SCaGkG7s3oUwiYnNq_pad-11" x="31358.84" y="20613.37"/><use xlink:href="#VB5SCaGkG7s3oUwiYnNq_pad-12" x="9809.98" y="52999.89"/><use xlink:href="#VB5SCaGkG7s3oUwiYnNq_pad-12" x="2189.98" y="52999.89"/><use xlink:href="#VB5SCaGkG7s3oUwiYnNq_pad-12" x="9809.98" y="49999.89"/><use xlink:href="#VB5SCaGkG7s3oUwiYnNq_pad-12" x="2189.98" y="49999.89"/><use xlink:href="#VB5SCaGkG7s3oUwiYnNq_pad-12" x="9809.98" y="55999.88"/><use xlink:href="#VB5SCaGkG7s3oUwiYnNq_pad-12" x="2189.98" y="55999.88"/><use xlink:href="#VB5SCaGkG7s3oUwiYnNq_pad-13" x="4999.98" y="34619.94"/><use xlink:href="#VB5SCaGkG7s3oUwiYnNq_pad-13" x="4999.98" y="19379.94"/><use xlink:href="#VB5SCaGkG7s3oUwiYnNq_pad-14" x="11230.01" y="3000"/><use xlink:href="#VB5SCaGkG7s3oUwiYnNq_pad-15" x="13770.1" y="2999.99"/><use xlink:href="#VB5SCaGkG7s3oUwiYnNq_pad-14" x="20730.01" y="3000"/><use xlink:href="#VB5SCaGkG7s3oUwiYnNq_pad-15" x="23269.95" y="2999.99"/><use xlink:href="#VB5SCaGkG7s3oUwiYnNq_pad-16" x="19539.96" y="52000.14"/><use xlink:href="#VB5SCaGkG7s3oUwiYnNq_pad-16" x="14459.96" y="52000.14"/><use xlink:href="#VB5SCaGkG7s3oUwiYnNq_pad-16" x="19540.22" y="57000.13"/><use xlink:href="#VB5SCaGkG7s3oUwiYnNq_pad-16" x="14460.21" y="57000.13"/><use xlink:href="#VB5SCaGkG7s3oUwiYnNq_pad-12" x="9809.98" y="68000.11"/><use xlink:href="#VB5SCaGkG7s3oUwiYnNq_pad-12" x="2189.98" y="68000.11"/><use xlink:href="#VB5SCaGkG7s3oUwiYnNq_pad-12" x="9809.98" y="65000.12"/><use xlink:href="#VB5SCaGkG7s3oUwiYnNq_pad-12" x="2189.98" y="65000.12"/><use xlink:href="#VB5SCaGkG7s3oUwiYnNq_pad-12" x="9809.98" y="62000.12"/><use xlink:href="#VB5SCaGkG7s3oUwiYnNq_pad-12" x="2189.98" y="62000.12"/><use xlink:href="#VB5SCaGkG7s3oUwiYnNq_pad-12" x="9809.98" y="58999.88"/><use xlink:href="#VB5SCaGkG7s3oUwiYnNq_pad-12" x="2189.98" y="58999.88"/><use xlink:href="#VB5SCaGkG7s3oUwiYnNq_pad-16" x="20539.96" y="29999.94"/><use xlink:href="#VB5SCaGkG7s3oUwiYnNq_pad-16" x="15459.96" y="29999.94"/><use xlink:href="#VB5SCaGkG7s3oUwiYnNq_pad-17" x="19499.35" y="83000.13"/><use xlink:href="#VB5SCaGkG7s3oUwiYnNq_pad-18" x="14500.6" y="83001.35"/><use xlink:href="#VB5SCaGkG7s3oUwiYnNq_pad-18" x="16999.96" y="88000.07"/><use xlink:href="#VB5SCaGkG7s3oUwiYnNq_pad-19" x="20249.89" y="67250.05"/><use xlink:href="#VB5SCaGkG7s3oUwiYnNq_pad-19" x="13750.03" y="67250.05"/><use xlink:href="#VB5SCaGkG7s3oUwiYnNq_pad-19" x="13750.03" y="71749.92"/><use xlink:href="#VB5SCaGkG7s3oUwiYnNq_pad-19" x="20249.89" y="71749.92"/><use xlink:href="#VB5SCaGkG7s3oUwiYnNq_pad-19" x="13750.03" y="74750.16"/><use xlink:href="#VB5SCaGkG7s3oUwiYnNq_pad-19" x="20249.89" y="74750.16"/><use xlink:href="#VB5SCaGkG7s3oUwiYnNq_pad-19" x="20249.89" y="79250.03"/><use xlink:href="#VB5SCaGkG7s3oUwiYnNq_pad-19" x="13750.03" y="79250.03"/><use xlink:href="#VB5SCaGkG7s3oUwiYnNq_pad-19" x="2250.18" y="74750.16"/><use xlink:href="#VB5SCaGkG7s3oUwiYnNq_pad-19" x="8750.04" y="74750.16"/><use xlink:href="#VB5SCaGkG7s3oUwiYnNq_pad-19" x="8750.04" y="79250.03"/><use xlink:href="#VB5SCaGkG7s3oUwiYnNq_pad-19" x="2250.18" y="79250.03"/><use xlink:href="#VB5SCaGkG7s3oUwiYnNq_pad-20" x="10379.98" y="44779.99"/><use xlink:href="#VB5SCaGkG7s3oUwiYnNq_pad-16" x="10379.96" y="42239.94"/><use xlink:href="#VB5SCaGkG7s3oUwiYnNq_pad-16" x="10379.96" y="39699.94"/><use xlink:href="#VB5SCaGkG7s3oUwiYnNq_pad-16" x="10379.96" y="37159.94"/><use xlink:href="#VB5SCaGkG7s3oUwiYnNq_pad-16" x="10379.96" y="34619.94"/><use xlink:href="#VB5SCaGkG7s3oUwiYnNq_pad-16" x="10379.96" y="32079.94"/><use xlink:href="#VB5SCaGkG7s3oUwiYnNq_pad-16" x="10379.96" y="29539.94"/><use xlink:href="#VB5SCaGkG7s3oUwiYnNq_pad-16" x="10379.96" y="26999.94"/><use xlink:href="#VB5SCaGkG7s3oUwiYnNq_pad-16" x="10379.96" y="24459.94"/><use xlink:href="#VB5SCaGkG7s3oUwiYnNq_pad-16" x="10379.96" y="21919.94"/><use xlink:href="#VB5SCaGkG7s3oUwiYnNq_pad-16" x="10379.96" y="19379.94"/><use xlink:href="#VB5SCaGkG7s3oUwiYnNq_pad-16" x="10379.96" y="16839.94"/><use xlink:href="#VB5SCaGkG7s3oUwiYnNq_pad-16" x="10379.96" y="14299.94"/><use xlink:href="#VB5SCaGkG7s3oUwiYnNq_pad-16" x="10379.96" y="11759.94"/><use xlink:href="#VB5SCaGkG7s3oUwiYnNq_pad-16" x="10379.96" y="9219.94"/><use xlink:href="#VB5SCaGkG7s3oUwiYnNq_pad-16" x="25619.96" y="44779.94"/><use xlink:href="#VB5SCaGkG7s3oUwiYnNq_pad-16" x="25619.96" y="42239.94"/><use xlink:href="#VB5SCaGkG7s3oUwiYnNq_pad-16" x="25619.96" y="39699.94"/><use xlink:href="#VB5SCaGkG7s3oUwiYnNq_pad-16" x="25619.96" y="37159.94"/><use xlink:href="#VB5SCaGkG7s3oUwiYnNq_pad-16" x="25619.96" y="34619.94"/><use xlink:href="#VB5SCaGkG7s3oUwiYnNq_pad-16" x="25619.96" y="32079.94"/><use xlink:href="#VB5SCaGkG7s3oUwiYnNq_pad-16" x="25619.96" y="29539.94"/><use xlink:href="#VB5SCaGkG7s3oUwiYnNq_pad-16" x="25619.96" y="26999.94"/><use xlink:href="#VB5SCaGkG7s3oUwiYnNq_pad-16" x="25619.96" y="24459.94"/><use xlink:href="#VB5SCaGkG7s3oUwiYnNq_pad-16" x="25619.96" y="21919.94"/><use xlink:href="#VB5SCaGkG7s3oUwiYnNq_pad-16" x="25619.96" y="19379.94"/><use xlink:href="#VB5SCaGkG7s3oUwiYnNq_pad-16" x="25619.96" y="16839.94"/><use xlink:href="#VB5SCaGkG7s3oUwiYnNq_pad-16" x="25619.96" y="14299.94"/><use xlink:href="#VB5SCaGkG7s3oUwiYnNq_pad-16" x="25619.96" y="11759.94"/><use xlink:href="#VB5SCaGkG7s3oUwiYnNq_pad-16" x="25619.96" y="9219.94"/><use xlink:href="#VB5SCaGkG7s3oUwiYnNq_pad-21" x="28999.99" y="50999.99"/><use xlink:href="#VB5SCaGkG7s3oUwiYnNq_pad-21" x="26459.99" y="50999.99"/><use xlink:href="#VB5SCaGkG7s3oUwiYnNq_pad-21" x="28999.99" y="53539.99"/><use xlink:href="#VB5SCaGkG7s3oUwiYnNq_pad-21" x="26459.99" y="53539.99"/><use xlink:href="#VB5SCaGkG7s3oUwiYnNq_pad-21" x="28999.99" y="56079.99"/><use xlink:href="#VB5SCaGkG7s3oUwiYnNq_pad-21" x="26459.99" y="56079.99"/><use xlink:href="#VB5SCaGkG7s3oUwiYnNq_pad-21" x="28999.99" y="58619.99"/><use xlink:href="#VB5SCaGkG7s3oUwiYnNq_pad-21" x="26459.99" y="58619.99"/><use xlink:href="#VB5SCaGkG7s3oUwiYnNq_pad-22" x="29999.93" y="69499.98"/><use xlink:href="#VB5SCaGkG7s3oUwiYnNq_pad-22" x="31999.93" y="69499.98"/><use xlink:href="#VB5SCaGkG7s3oUwiYnNq_pad-22" x="24999.95" y="69499.98"/><use xlink:href="#VB5SCaGkG7s3oUwiYnNq_pad-22" x="26999.94" y="69499.98"/><use xlink:href="#VB5SCaGkG7s3oUwiYnNq_pad-23" x="9999.97" y="88270.08"/><use xlink:href="#VB5SCaGkG7s3oUwiYnNq_pad-23" x="9999.97" y="85730.08"/><use xlink:href="#VB5SCaGkG7s3oUwiYnNq_pad-24" x="26000.63" y="75000.12"/><use xlink:href="#VB5SCaGkG7s3oUwiYnNq_pad-18" x="30999.43" y="75001.37"/><use xlink:href="#VB5SCaGkG7s3oUwiYnNq_pad-18" x="28500.06" y="80000.09"/><use xlink:href="#VB5SCaGkG7s3oUwiYnNq_pad-23" x="24999.95" y="88270.08"/><use xlink:href="#VB5SCaGkG7s3oUwiYnNq_pad-23" x="24999.95" y="85730.08"/></g><g id="HxRwrdzPqYnQLmd6FvdB_top_silkscreen"><path d="M 14500.47 81308.04 14500.47 80543.5 14937.35 80543.5 M 15176.11 81308.04 15211.67 81269.94 15249.77 81308.04 15211.67 81343.6 15176.11 81308.04 M 15211.67 81051.5 15211.67 80543.5 M 15925.41 81051.5 15925.41 80469.84 15889.85 80360.62 15851.75 80325.06 15780.63 80289.5 15671.41 80289.5 15597.75 80325.06 M 15925.41 80944.82 15851.75 81015.94 15780.63 81051.5 15671.41 81051.5 15597.75 81015.94 15526.63 80944.82 15488.53 80835.6 15488.53 80761.94 15526.63 80652.72 15597.75 80579.06 15671.41 80543.5 15780.63 80543.5 15851.75 80579.06 15925.41 80652.72 M 16166.71 81308.04 16166.71 80543.5 M 16166.71 80906.72 16273.39 81015.94 16347.05 81051.5 16456.27 81051.5 16529.93 81015.94 16565.49 80906.72 16565.49 80543.5 M 16913.47 81308.04 16913.47 80688.28 16951.57 80579.06 17022.69 80543.5 17096.35 80543.5 M 16804.25 81051.5 17060.79 81051.5 M 18404.45 81198.82 18333.33 81269.94 18224.11 81308.04 18079.33 81308.04 17970.11 81269.94 17896.45 81198.82 17896.45 81125.16 17932.01 81051.5 17970.11 81015.94 18041.23 80980.38 18259.67 80906.72 18333.33 80871.16 18368.89 80835.6 18404.45 80761.94 18404.45 80652.72 18333.33 80579.06 18224.11 80543.5 18079.33 80543.5 17970.11 80579.06 17896.45 80652.72 M 18645.75 81308.04 18826.09 80543.5 M 19008.97 81308.04 18826.09 80543.5 M 19008.97 81308.04 19191.85 80543.5 M 19372.19 81308.04 19191.85 80543.5 M 21137.52 77873.6 21046.08 77962.5 20908.92 78008.22 20726.04 78008.22 20591.42 77962.5 20499.98 77873.6 20499.98 77782.16 20545.7 77690.72 20591.42 77645 20682.86 77599.28 20954.64 77507.84 21046.08 77464.66 21091.8 77418.94 21137.52 77327.5 21137.52 77190.34 21046.08 77098.9 20908.92 77055.72 20726.04 77055.72 20591.42 77098.9 20499.98 77190.34 M 21437.24 78008.22 21663.3 77055.72 M 21891.9 78008.22 21663.3 77055.72 M 21891.9 78008.22 22117.96 77055.72 M 22346.56 78008.22 22117.96 77055.72 M 22692 77782.16 22692 77827.88 22735.18 77919.32 22780.9 77962.5 22872.34 78008.22 23055.22 78008.22 23146.66 77962.5 23189.84 77919.32 23235.56 77827.88 23235.56 77736.44 23189.84 77645 23100.94 77507.84 22646.28 77055.72 23281.28 77055.72 M 3500.85 81307.55 3500.85 80543.01 M 3500.85 81307.55 3973.29 81307.55 M 3500.85 80944.33 3790.41 80944.33 M 3500.85 80543.01 3973.29 80543.01 M 4212.05 81053.55 4613.37 80543.01 M 4613.37 81053.55 4212.05 80543.01 M 4961.35 81307.55 4961.35 80690.33 4996.91 80581.11 5070.57 80543.01 5144.23 80543.01 M 4852.13 81053.55 5106.13 81053.55 M 5382.99 81053.55 5382.99 80543.01 M 5382.99 80835.11 5421.09 80944.33 5492.21 81015.45 5565.87 81053.55 5675.09 81053.55 M 6350.73 81053.55 6350.73 80543.01 M 6350.73 80944.33 6277.07 81015.45 6205.95 81053.55 6096.73 81053.55 6023.07 81015.45 5951.95 80944.33 5913.85 80835.11 5913.85 80761.45 5951.95 80652.23 6023.07 80581.11 6096.73 80543.01 6205.95 80543.01 6277.07 80581.11 6350.73 80652.23 M 7658.83 81198.33 7587.71 81271.99 7478.49 81307.55 7333.71 81307.55 7224.49 81271.99 7150.83 81198.33 7150.83 81124.67 7186.39 81053.55 7224.49 81015.45 7295.61 80979.89 7514.05 80906.23 7587.71 80870.67 7623.27 80835.11 7658.83 80761.45 7658.83 80652.23 7587.71 80581.11 7478.49 80543.01 7333.71 80543.01 7224.49 80581.11 7150.83 80652.23 M 7900.13 81307.55 8083.01 80543.01 M 8263.35 81307.55 8083.01 80543.01 M 8263.35 81307.55 8446.23 80543.01 M 8626.57 81307.55 8446.23 80543.01 M 4635.85 73373.61 4544.41 73462.51 4409.79 73508.23 4226.91 73508.23 4089.75 73462.51 4000.85 73373.61 4000.85 73282.17 4046.57 73190.73 4089.75 73145.01 4181.19 73099.29 4455.51 73007.85 4544.41 72964.67 4590.13 72918.95 4635.85 72827.51 4635.85 72690.35 4544.41 72598.91 4409.79 72555.73 4226.91 72555.73 4089.75 72598.91 4000.85 72690.35 M 4935.57 73508.23 5164.17 72555.73 M 5390.23 73508.23 5164.17 72555.73 M 5390.23 73508.23 5618.83 72555.73 M 5844.89 73508.23 5618.83 72555.73 M 6236.05 73508.23 6736.43 73508.23 6464.65 73145.01 6599.27 73145.01 6690.71 73099.29 6736.43 73053.57 6782.15 72918.95 6782.15 72827.51 6736.43 72690.35 6644.99 72598.91 6507.83 72555.73 6373.21 72555.73 6236.05 72598.91 6190.33 72644.63 6144.61 72736.07 M 17999.98 46153.17 17999.98 45373.39 18050.78 45218.45 18154.92 45114.31 18312.4 45063.51 18416.54 45063.51 18571.48 45114.31 18675.62 45218.45 18726.42 45373.39 18726.42 46153.17 M 19744.96 45789.95 19694.16 45635.01 19590.02 45530.87 19435.08 45477.53 19381.74 45477.53 19226.8 45530.87 19122.66 45635.01 19069.32 45789.95 19069.32 45840.75 19122.66 45998.23 19226.8 46102.37 19381.74 46153.17 19435.08 46153.17 19590.02 46102.37 19694.16 45998.23 19744.96 45789.95 19744.96 45530.87 19694.16 45269.25 19590.02 45114.31 19435.08 45063.51 19330.94 45063.51 19173.46 45114.31 19122.66 45218.45" fill="none" stroke-width="152.4"/><path d="M 3682 45610.57 3682 44640.29 M 3682 45610.57 4004.58 45610.57 4144.28 45564.85 4235.72 45473.41 4281.44 45379.43 4329.7 45242.27 4329.7 45011.13 4281.44 44871.43 4235.72 44779.99 4144.28 44688.55 4004.58 44640.29 3682 44640.29 M 4634.5 45425.15 4725.94 45473.41 4863.1 45610.57 4863.1 44640.29 M 6001.02 45795.99 5167.9 44317.71 M 6628.4 45610.57 6628.4 44640.29 M 6305.82 45610.57 6950.98 45610.57 M 7255.78 45610.57 7903.48 44640.29 M 7903.48 45610.57 7255.78 44640.29 M 29107.4 42562.57 29061.68 42656.55 28967.7 42747.99 28876.26 42793.71 28690.84 42793.71 28599.4 42747.99 28505.42 42656.55 28459.7 42562.57 28413.98 42425.41 28413.98 42194.27 28459.7 42054.57 28505.42 41963.13 28599.4 41871.69 28690.84 41823.43 28876.26 41823.43 28967.7 41871.69 29061.68 41963.13 29107.4 42054.57 29107.4 42194.27 M 28876.26 42194.27 29107.4 42194.27 M 29412.2 42793.71 29412.2 41823.43 M 29412.2 42793.71 30057.36 41823.43 M 30057.36 42793.71 30057.36 41823.43 M 30362.16 42793.71 30362.16 41823.43 M 30362.16 42793.71 30687.28 42793.71 30824.44 42747.99 30915.88 42656.55 30964.14 42562.57 31009.86 42425.41 31009.86 42194.27 30964.14 42054.57 30915.88 41963.13 30824.44 41871.69 30687.28 41823.43 30362.16 41823.43 M 28830.54 37322.55 28830.54 36489.43 M 28413.98 36905.99 29244.56 36905.99 M 30103.08 37459.71 29643.34 37459.71 29595.08 37045.69 29643.34 37091.41 29780.5 37137.13 29920.2 37137.13 30057.36 37091.41 30151.34 36997.43 30197.06 36860.27 30197.06 36766.29 30151.34 36629.13 30057.36 36537.69 29920.2 36489.43 29780.5 36489.43 29643.34 36537.69 29595.08 36583.41 29549.36 36674.85 M 30501.86 37459.71 30870.16 36489.43 M 31241 37459.71 30870.16 36489.43 M 1289.32 9773.71 1289.32 8803.43 M 1289.32 9773.71 1611.9 9773.71 1751.6 9727.99 1843.04 9636.55 1888.76 9542.57 1937.02 9405.41 1937.02 9174.27 1888.76 9034.57 1843.04 8943.13 1751.6 8851.69 1611.9 8803.43 1289.32 8803.43 M 2241.82 9588.29 2333.26 9636.55 2470.42 9773.71 2470.42 8803.43 M 2823.48 9542.57 2823.48 9588.29 2869.2 9682.27 2914.92 9727.99 3006.36 9773.71 3191.78 9773.71 3283.22 9727.99 3331.48 9682.27 3377.2 9588.29 3377.2 9496.85 3331.48 9405.41 3237.5 9265.71 2775.22 8803.43 3422.92 8803.43 M 4558.3 9959.13 3727.72 8480.85 M 4863.1 9773.71 4863.1 8803.43 M 4863.1 9773.71 5233.94 8803.43 M 5602.24 9773.71 5233.94 8803.43 M 5602.24 9773.71 5602.24 8803.43 M 5907.04 9773.71 5907.04 8803.43 M 6859.54 9636.55 6765.56 9727.99 6628.4 9773.71 6442.98 9773.71 6305.82 9727.99 6211.84 9636.55 6211.84 9542.57 6257.56 9451.13 6305.82 9405.41 6397.26 9359.69 6674.12 9265.71 6765.56 9219.99 6813.82 9174.27 6859.54 9080.29 6859.54 8943.13 6765.56 8851.69 6628.4 8803.43 6442.98 8803.43 6305.82 8851.69 6211.84 8943.13 M 7441.2 9773.71 7347.22 9727.99 7255.78 9636.55 7210.06 9542.57 7164.34 9405.41 7164.34 9174.27 7210.06 9034.57 7255.78 8943.13 7347.22 8851.69 7441.2 8803.43 7626.62 8803.43 7718.06 8851.69 7809.5 8943.13 7855.22 9034.57 7903.48 9174.27 7903.48 9405.41 7855.22 9542.57 7809.5 9636.55 7718.06 9727.99 7626.62 9773.71 7441.2 9773.71 M 28413.98 45333.71 28782.28 44363.43 M 29153.12 45333.71 28782.28 44363.43 M 29457.92 45333.71 29457.92 44363.43 M 29762.72 45333.71 29762.72 44363.43 M 29762.72 45333.71 30407.88 44363.43 M 30407.88 45333.71 30407.88 44363.43 M 27500.02 9553.77 27500.02 8583.49 M 27500.02 9553.77 27822.6 9553.77 27962.3 9508.05 28053.74 9416.61 28099.46 9322.63 28147.72 9185.47 28147.72 8954.33 28099.46 8814.63 28053.74 8723.19 27962.3 8631.75 27822.6 8583.49 27500.02 8583.49 M 28452.52 9368.35 28543.96 9416.61 28681.12 9553.77 28681.12 8583.49 M 29079.9 9553.77 29587.9 9553.77 29311.04 9185.47 29448.2 9185.47 29542.18 9139.75 29587.9 9091.49 29633.62 8954.33 29633.62 8860.35 29587.9 8723.19 29493.92 8631.75 29356.76 8583.49 29217.06 8583.49 29079.9 8631.75 29034.18 8677.47 28985.92 8768.91 M 30769 9739.19 29938.42 8260.91 M 31721.5 9416.61 31627.52 9508.05 31490.36 9553.77 31304.94 9553.77 31167.78 9508.05 31073.8 9416.61 31073.8 9322.63 31119.52 9231.19 31167.78 9185.47 31259.22 9139.75 31536.08 9045.77 31627.52 9000.05 31675.78 8954.33 31721.5 8860.35 31721.5 8723.19 31627.52 8631.75 31490.36 8583.49 31304.94 8583.49 31167.78 8631.75 31073.8 8723.19 M 32719.72 9322.63 32671.46 9416.61 32580.02 9508.05 32488.58 9553.77 32303.16 9553.77 32211.72 9508.05 32117.74 9416.61 32072.02 9322.63 32026.3 9185.47 32026.3 8954.33 32072.02 8814.63 32117.74 8723.19 32211.72 8631.75 32303.16 8583.49 32488.58 8583.49 32580.02 8631.75 32671.46 8723.19 32719.72 8814.63 M 33024.52 9553.77 33024.52 8583.49 M 33669.68 9553.77 33024.52 8908.61 M 33253.12 9139.75 33669.68 8583.49 M 6001.02 37482.57 5955.3 37576.55 5861.32 37667.99 5769.88 37713.71 5584.46 37713.71 5493.02 37667.99 5399.04 37576.55 5353.32 37482.57 5307.6 37345.41 5307.6 37114.27 5353.32 36974.57 5399.04 36883.13 5493.02 36791.69 5584.46 36743.43 5769.88 36743.43 5861.32 36791.69 5955.3 36883.13 6001.02 36974.57 6001.02 37114.27 M 5769.88 37114.27 6001.02 37114.27 M 6305.82 37713.71 6305.82 36743.43 M 6305.82 37713.71 6950.98 36743.43 M 6950.98 37713.71 6950.98 36743.43 M 7255.78 37713.71 7255.78 36743.43 M 7255.78 37713.71 7580.9 37713.71 7718.06 37667.99 7809.5 37576.55 7857.76 37482.57 7903.48 37345.41 7903.48 37114.27 7857.76 36974.57 7809.5 36883.13 7718.06 36791.69 7580.9 36743.43 7255.78 36743.43 M 3267.98 42562.57 3267.98 41592.29 M 3267.98 42562.57 3590.56 42562.57 3730.26 42516.85 3821.7 42425.41 3867.42 42331.43 3915.68 42194.27 3915.68 41963.13 3867.42 41823.43 3821.7 41731.99 3730.26 41640.55 3590.56 41592.29 3267.98 41592.29 M 4497.34 42562.57 4357.64 42516.85 4266.2 42377.15 4220.48 42148.55 4220.48 42008.85 4266.2 41777.71 4357.64 41640.55 4497.34 41592.29 4588.78 41592.29 4728.48 41640.55 4819.92 41777.71 4865.64 42008.85 4865.64 42148.55 4819.92 42377.15 4728.48 42516.85 4588.78 42562.57 4497.34 42562.57 M 6001.02 42747.99 5170.44 41269.71 M 6305.82 42562.57 6305.82 41592.29 M 6305.82 42562.57 6722.38 42562.57 6862.08 42516.85 6907.8 42471.13 6953.52 42377.15 6953.52 42285.71 6907.8 42194.27 6862.08 42148.55 6722.38 42100.29 6305.82 42100.29 M 6630.94 42100.29 6953.52 41592.29 M 7258.32 42562.57 7903.48 41592.29 M 7903.48 42562.57 7258.32 41592.29 M 3544.84 40207.99 3544.84 39237.71 M 3544.84 40207.99 3961.4 40207.99 4098.56 40162.27 4144.28 40116.55 4192.54 40022.57 4192.54 39931.13 4144.28 39839.69 4098.56 39793.97 3961.4 39745.71 3544.84 39745.71 M 3867.42 39745.71 4192.54 39237.71 M 4497.34 40207.99 4497.34 39237.71 M 4497.34 40207.99 5096.78 40207.99 M 4497.34 39745.71 4865.64 39745.71 M 4497.34 39237.71 5096.78 39237.71 M 6046.74 40070.83 5955.3 40162.27 5818.14 40207.99 5632.72 40207.99 5493.02 40162.27 5401.58 40070.83 5401.58 39976.85 5447.3 39885.41 5493.02 39839.69 5587 39793.97 5863.86 39699.99 5955.3 39654.27 6001.02 39608.55 6046.74 39514.57 6046.74 39377.41 5955.3 39285.97 5818.14 39237.71 5632.72 39237.71 5493.02 39285.97 5401.58 39377.41 M 6351.54 40207.99 6351.54 39237.71 M 6351.54 40207.99 6953.52 40207.99 M 6351.54 39745.71 6722.38 39745.71 M 6351.54 39237.71 6953.52 39237.71 M 7580.9 40207.99 7580.9 39237.71 M 7258.32 40207.99 7903.48 40207.99 M 7000.03 35053.77 7000.03 34083.49 M 7000.03 35053.77 7322.61 35053.77 7462.31 35008.05 7553.75 34916.61 7599.47 34822.63 7647.73 34685.47 7647.73 34454.33 7599.47 34314.63 7553.75 34223.19 7462.31 34131.75 7322.61 34083.49 7000.03 34083.49 M 7998.25 34822.63 7998.25 34868.35 8043.97 34962.33 8089.69 35008.05 8181.13 35053.77 8366.55 35053.77 8460.53 35008.05 8506.25 34962.33 8551.97 34868.35 8551.97 34776.91 8506.25 34685.47 8412.27 34545.77 7952.53 34083.49 8597.69 34083.49 M 6305.82 32633.71 6305.82 31663.43 M 6305.82 32633.71 6628.4 32633.71 6768.1 32587.99 6859.54 32496.55 6905.26 32402.57 6953.52 32265.41 6953.52 32034.27 6905.26 31894.57 6859.54 31803.13 6768.1 31711.69 6628.4 31663.43 6305.82 31663.43 M 7349.76 32633.71 7857.76 32633.71 7580.9 32265.41 7718.06 32265.41 7812.04 32219.69 7857.76 32171.43 7903.48 32034.27 7903.48 31940.29 7857.76 31803.13 7766.32 31711.69 7626.62 31663.43 7486.92 31663.43 7349.76 31711.69 7304.04 31757.41 7258.32 31848.85 M 6260.1 30093.71 6260.1 29123.43 M 6260.1 30093.71 6582.68 30093.71 6722.38 30047.99 6813.82 29956.55 6859.54 29862.57 6907.8 29725.41 6907.8 29494.27 6859.54 29354.57 6813.82 29263.13 6722.38 29171.69 6582.68 29123.43 6260.1 29123.43 M 7672.34 30093.71 7212.6 29448.55 7903.48 29448.55 M 7672.34 30093.71 7672.34 29123.43 M 6305.82 27807.71 6305.82 26837.43 M 6305.82 27807.71 6628.4 27807.71 6768.1 27761.99 6859.54 27670.55 6905.26 27576.57 6953.52 27439.41 6953.52 27208.27 6905.26 27068.57 6859.54 26977.13 6768.1 26885.69 6628.4 26837.43 6305.82 26837.43 M 7812.04 27807.71 7349.76 27807.71 7304.04 27393.69 7349.76 27439.41 7486.92 27485.13 7626.62 27485.13 7766.32 27439.41 7857.76 27345.43 7903.48 27208.27 7903.48 27114.29 7857.76 26977.13 7766.32 26885.69 7626.62 26837.43 7486.92 26837.43 7349.76 26885.69 7304.04 26931.41 7258.32 27022.85 M 6351.54 25267.71 6351.54 24297.43 M 6351.54 25267.71 6674.12 25267.71 6813.82 25221.99 6905.26 25130.55 6950.98 25036.57 6999.24 24899.41 6999.24 24668.27 6950.98 24528.57 6905.26 24437.13 6813.82 24345.69 6674.12 24297.43 6351.54 24297.43 M 7857.76 25130.55 7812.04 25221.99 7672.34 25267.71 7580.9 25267.71 7441.2 25221.99 7349.76 25082.29 7304.04 24853.69 7304.04 24622.55 7349.76 24437.13 7441.2 24345.69 7580.9 24297.43 7626.62 24297.43 7763.78 24345.69 7857.76 24437.13 7903.48 24574.29 7903.48 24622.55 7857.76 24759.71 7763.78 24853.69 7626.62 24899.41 7580.9 24899.41 7441.2 24853.69 7349.76 24759.71 7304.04 24622.55 M 6500.03 22553.77 6500.03 21583.49 M 6500.03 22553.77 6822.61 22553.77 6962.31 22508.05 7053.75 22416.61 7099.47 22322.63 7147.73 22185.47 7147.73 21954.33 7099.47 21814.63 7053.75 21723.19 6962.31 21631.75 6822.61 21583.49 6500.03 21583.49 M 8097.69 22553.77 7635.41 21583.49 M 7452.53 22553.77 8097.69 22553.77 M 7000.03 20053.78 7000.03 19083.5 M 7000.03 20053.78 7322.61 20053.78 7462.31 20008.06 7553.75 19916.62 7599.47 19822.64 7647.73 19685.48 7647.73 19454.34 7599.47 19314.64 7553.75 19223.2 7462.31 19131.76 7322.61 19083.5 7000.03 19083.5 M 8181.13 20053.78 8043.97 20008.06 7998.25 19916.62 7998.25 19822.64 8043.97 19731.2 8135.41 19685.48 8320.83 19639.76 8460.53 19591.5 8551.97 19500.06 8597.69 19408.62 8597.69 19268.92 8551.97 19177.48 8506.25 19131.76 8366.55 19083.5 8181.13 19083.5 8043.97 19131.76 7998.25 19177.48 7952.53 19268.92 7952.53 19408.62 7998.25 19500.06 8089.69 19591.5 8229.39 19639.76 8412.27 19685.48 8506.25 19731.2 8551.97 19822.64 8551.97 19916.62 8506.25 20008.06 8366.55 20053.78 8181.13 20053.78 M 7000.03 17553.76 7000.03 16583.48 M 7000.03 17553.76 7322.61 17553.76 7462.31 17508.04 7553.75 17416.6 7599.47 17322.62 7647.73 17185.46 7647.73 16954.32 7599.47 16814.62 7553.75 16723.18 7462.31 16631.74 7322.61 16583.48 7000.03 16583.48 M 8551.97 17231.18 8506.25 17091.48 8412.27 17000.04 8275.11 16954.32 8229.39 16954.32 8089.69 17000.04 7998.25 17091.48 7952.53 17231.18 7952.53 17276.9 7998.25 17416.6 8089.69 17508.04 8229.39 17553.76 8275.11 17553.76 8412.27 17508.04 8506.25 17416.6 8551.97 17231.18 8551.97 17000.04 8506.25 16768.9 8412.27 16631.74 8275.11 16583.48 8181.13 16583.48 8043.97 16631.74 7998.25 16723.18 M 5769.88 14853.71 5769.88 13883.43 M 5769.88 14853.71 6092.46 14853.71 6232.16 14807.99 6323.6 14716.55 6369.32 14622.57 6417.58 14485.41 6417.58 14254.27 6369.32 14114.57 6323.6 14023.13 6232.16 13931.69 6092.46 13883.43 5769.88 13883.43 M 6722.38 14668.29 6813.82 14716.55 6950.98 14853.71 6950.98 13883.43 M 7535.18 14853.71 7395.48 14807.99 7304.04 14668.29 7255.78 14439.69 7255.78 14299.99 7304.04 14068.85 7395.48 13931.69 7535.18 13883.43 7626.62 13883.43 7763.78 13931.69 7857.76 14068.85 7903.48 14299.99 7903.48 14439.69 7857.76 14668.29 7763.78 14807.99 7626.62 14853.71 7535.18 14853.71 M 1705.88 12567.71 1705.88 11597.43 M 1705.88 12567.71 2028.46 12567.71 2168.16 12521.99 2259.6 12430.55 2305.32 12336.57 2353.58 12199.41 2353.58 11968.27 2305.32 11828.57 2259.6 11737.13 2168.16 11645.69 2028.46 11597.43 1705.88 11597.43 M 2658.38 12382.29 2749.82 12430.55 2886.98 12567.71 2886.98 11597.43 M 3191.78 12382.29 3285.76 12430.55 3422.92 12567.71 3422.92 11597.43 M 4560.84 12753.13 3727.72 11274.85 M 4865.64 12567.71 4865.64 11597.43 M 4865.64 12567.71 5233.94 11597.43 M 5604.78 12567.71 5233.94 11597.43 M 5604.78 12567.71 5604.78 11597.43 M 6186.44 12567.71 6092.46 12521.99 6001.02 12430.55 5955.3 12336.57 5909.58 12199.41 5909.58 11968.27 5955.3 11828.57 6001.02 11737.13 6092.46 11645.69 6186.44 11597.43 6369.32 11597.43 6463.3 11645.69 6554.74 11737.13 6600.46 11828.57 6646.18 11968.27 6646.18 12199.41 6600.46 12336.57 6554.74 12430.55 6463.3 12521.99 6369.32 12567.71 6186.44 12567.71 M 7598.68 12430.55 7507.24 12521.99 7367.54 12567.71 7182.12 12567.71 7044.96 12521.99 6950.98 12430.55 6950.98 12336.57 6999.24 12245.13 7044.96 12199.41 7136.4 12153.69 7413.26 12059.71 7507.24 12013.99 7552.96 11968.27 7598.68 11874.29 7598.68 11737.13 7507.24 11645.69 7367.54 11597.43 7182.12 11597.43 7044.96 11645.69 6950.98 11737.13 M 7903.48 12567.71 7903.48 11597.43 M 28505.42 12059.71 29013.42 12059.71 28736.56 11691.41 28876.26 11691.41 28967.7 11645.69 29013.42 11597.43 29061.68 11460.27 29061.68 11366.29 29013.42 11229.13 28921.98 11137.69 28782.28 11089.43 28645.12 11089.43 28505.42 11137.69 28459.7 11183.41 28413.98 11274.85 M 29366.48 12059.71 29734.78 11089.43 M 30103.08 12059.71 29734.78 11089.43 M 30501.86 12059.71 31009.86 12059.71 30733 11691.41 30870.16 11691.41 30964.14 11645.69 31009.86 11597.43 31055.58 11460.27 31055.58 11366.29 31009.86 11229.13 30915.88 11137.69 30778.72 11089.43 30639.02 11089.43 30501.86 11137.69 30456.14 11183.41 30407.88 11274.85 M 27455.69 14767.55 27092.47 13812.52 M 27455.69 14767.55 27821.45 13812.52 M 27229.63 14130.02 27684.29 14130.02 M 28121.17 14767.55 28121.17 13812.52 M 28121.17 14767.55 28530.11 14767.55 28664.73 14721.84 28710.45 14676.12 28756.17 14584.68 28756.17 14493.23 28710.45 14404.34 28664.73 14358.62 28530.11 14312.89 28121.17 14312.89 M 28438.67 14312.89 28756.17 13812.52 M 29055.89 14767.55 29055.89 13812.52 M 29055.89 14767.55 29647.71 14767.55 M 29055.89 14312.89 29421.65 14312.89 M 29055.89 13812.52 29647.71 13812.52 M 29947.43 14767.55 29947.43 13812.52 M 29947.43 14767.55 30539.25 14767.55 M 29947.43 14312.89 30310.65 14312.89 M 28206.54 17410.65 27838.24 16440.37 M 28206.54 17410.65 28577.38 16440.37 M 27977.94 16765.49 28437.68 16765.49 M 29159.04 17410.65 29019.34 17364.93 28927.9 17225.23 28882.18 16996.63 28882.18 16856.93 28927.9 16625.79 29019.34 16488.63 29159.04 16440.37 29250.48 16440.37 29390.18 16488.63 29481.62 16625.79 29527.34 16856.93 29527.34 16996.63 29481.62 17225.23 29390.18 17364.93 29250.48 17410.65 29159.04 17410.65 M 28308.17 19832.09 27939.87 18861.81 M 28308.17 19832.09 28679.01 18861.81 M 28079.57 19186.93 28539.31 19186.93 M 28983.81 19646.67 29075.25 19694.93 29214.95 19832.09 29214.95 18861.81 M 28342 22355.17 27973.7 21384.89 M 28342 22355.17 28712.84 21384.89 M 28113.4 21710.01 28573.14 21710.01 M 29063.36 22124.03 29063.36 22169.75 29109.08 22263.73 29154.8 22309.45 29248.78 22355.17 29434.2 22355.17 29525.64 22309.45 29571.36 22263.73 29617.08 22169.75 29617.08 22078.31 29571.36 21986.87 29479.92 21847.17 29017.64 21384.89 29662.8 21384.89 M 28782.28 25013.71 28413.98 24043.43 M 28782.28 25013.71 29153.12 24043.43 M 28553.68 24368.55 29013.42 24368.55 M 29549.36 25013.71 30057.36 25013.71 29780.5 24645.41 29920.2 24645.41 30011.64 24599.69 30057.36 24551.43 30103.08 24414.27 30103.08 24320.29 30057.36 24183.13 29965.92 24091.69 29826.22 24043.43 29689.06 24043.43 29549.36 24091.69 29503.64 24137.41 29457.92 24228.85 M 28782.28 27553.71 28413.98 26583.43 M 28782.28 27553.71 29153.12 26583.43 M 28553.68 26908.55 29013.42 26908.55 M 29920.2 27553.71 29457.92 26908.55 30151.34 26908.55 M 29920.2 27553.71 29920.2 26583.43 M 28782.28 30093.71 28413.98 29123.43 M 28782.28 30093.71 29153.12 29123.43 M 28553.68 29448.55 29013.42 29448.55 M 30011.64 30093.71 29549.36 30093.71 29503.64 29679.69 29549.36 29725.41 29689.06 29771.13 29826.22 29771.13 29965.92 29725.41 30057.36 29631.43 30103.08 29494.27 30103.08 29400.29 30057.36 29263.13 29965.92 29171.69 29826.22 29123.43 29689.06 29123.43 29549.36 29171.69 29503.64 29217.41 29457.92 29308.85 M 28782.28 32379.71 28413.98 31409.43 M 28782.28 32379.71 29153.12 31409.43 M 28553.68 31734.55 29013.42 31734.55 M 30011.64 32242.55 29965.92 32333.99 29826.22 32379.71 29734.78 32379.71 29595.08 32333.99 29503.64 32194.29 29457.92 31965.69 29457.92 31734.55 29503.64 31549.13 29595.08 31457.69 29734.78 31409.43 29780.5 31409.43 29920.2 31457.69 30011.64 31549.13 30057.36 31686.29 30057.36 31734.55 30011.64 31871.71 29920.2 31965.69 29780.5 32011.41 29734.78 32011.41 29595.08 31965.69 29503.64 31871.71 29457.92 31734.55 M 28782.28 35173.71 28413.98 34203.43 M 28782.28 35173.71 29153.12 34203.43 M 28553.68 34528.55 29013.42 34528.55 M 30103.08 35173.71 29643.34 34203.43 M 29457.92 35173.71 30103.08 35173.71 M 28413.98 40253.71 28413.98 39283.43 M 28413.98 40253.71 28830.54 40253.71 28967.7 40207.99 29013.42 40162.27 29061.68 40068.29 29061.68 39976.85 29013.42 39885.41 28967.7 39839.69 28830.54 39791.43 28413.98 39791.43 M 28736.56 39791.43 29061.68 39283.43 M 29366.48 40253.71 29366.48 39283.43 M 29366.48 40253.71 29965.92 40253.71 M 29366.48 39791.43 29734.78 39791.43 M 29366.48 39283.43 29965.92 39283.43 M 30915.88 40116.55 30824.44 40207.99 30687.28 40253.71 30501.86 40253.71 30362.16 40207.99 30270.72 40116.55 30270.72 40022.57 30316.44 39931.13 30362.16 39885.41 30456.14 39839.69 30733 39745.71 30824.44 39699.99 30870.16 39654.27 30915.88 39560.29 30915.88 39423.13 30824.44 39331.69 30687.28 39283.43 30501.86 39283.43 30362.16 39331.69 30270.72 39423.13 M 31220.68 40253.71 31220.68 39283.43 M 31220.68 40253.71 31822.66 40253.71 M 31220.68 39791.43 31591.52 39791.43 M 31220.68 39283.43 31822.66 39283.43 M 32450.04 40253.71 32450.04 39283.43 M 32127.46 40253.71 32772.62 40253.71" fill="none" stroke-width="203.2"/><path d="M 16187.08 64053.54 16187.08 62963.88 M 16187.08 64053.54 16913.52 62963.88 M 16913.52 64053.54 16913.52 62963.88 M 17256.42 64053.54 17256.42 62963.88 M 17256.42 64053.54 17723.78 64053.54 17881.26 64002.74 17932.06 63949.4 17985.4 63845.26 17985.4 63741.12 17932.06 63636.98 17881.26 63586.18 17723.78 63535.38 17256.42 63535.38 M 17622.18 63535.38 17985.4 62963.88 M 18328.3 64053.54 18328.3 62963.88 M 18328.3 64053.54 19003.94 64053.54 M 18328.3 63535.38 18742.32 63535.38 M 19397.64 63794.46 19397.64 63845.26 19450.98 63949.4 19501.78 64002.74 19605.92 64053.54 19814.2 64053.54 19918.34 64002.74 19969.14 63949.4 20022.48 63845.26 20022.48 63741.12 19969.14 63636.98 19865 63482.04 19346.84 62963.88 20073.28 62963.88 M 20936.88 64053.54 20416.18 63327.1 21195.96 63327.1 M 20936.88 64053.54 20936.88 62963.88 M 21538.86 64053.54 21538.86 62963.88 22161.16 62963.88 M 22816.48 64053.54 22661.54 64002.74 22557.4 63845.26 22504.06 63586.18 22504.06 63431.24 22557.4 63169.62 22661.54 63014.68 22816.48 62963.88 22920.62 62963.88 23075.56 63014.68 23179.7 63169.62 23233.04 63431.24 23233.04 63586.18 23179.7 63845.26 23075.56 64002.74 22920.62 64053.54 22816.48 64053.54 M 23575.94 63845.26 23680.08 63898.6 23835.02 64053.54 23835.02 62963.88" fill="none" stroke-width="152.4"/><path d="M 23157.99 59056.87 23157.99 58292.33 M 23396.75 59056.87 23396.75 58292.33 M 23396.75 59056.87 23724.41 59056.87 23833.63 59018.77 23871.73 58983.21 23907.29 58912.09 23907.29 58838.43 23871.73 58764.77 23833.63 58729.21 23724.41 58693.65 23396.75 58693.65 M 23653.29 58693.65 23907.29 58292.33 M 24364.49 59056.87 24293.37 59018.77 24219.71 58947.65 24184.15 58873.99 24146.05 58764.77 24146.05 58584.43 24184.15 58475.21 24219.71 58401.55 24293.37 58327.89 24364.49 58292.33 24511.81 58292.33 24582.93 58327.89 24656.59 58401.55 24692.15 58475.21 24727.71 58584.43 24727.71 58764.77 24692.15 58873.99 24656.59 58947.65 24582.93 59018.77 24511.81 59056.87 24364.49 59056.87 M 24473.71 58437.11 24692.15 58221.21 M 22141.99 56770.87 22141.99 56006.33 M 22141.99 56770.87 22434.09 56006.33 M 22723.65 56770.87 22434.09 56006.33 M 22723.65 56770.87 22723.65 56006.33 M 23180.85 56770.87 23109.73 56732.77 23036.07 56661.65 23000.51 56587.99 22964.95 56478.77 22964.95 56298.43 23000.51 56189.21 23036.07 56115.55 23109.73 56041.89 23180.85 56006.33 23328.17 56006.33 23399.29 56041.89 23472.95 56115.55 23508.51 56189.21 23546.61 56298.43 23546.61 56478.77 23508.51 56587.99 23472.95 56661.65 23399.29 56732.77 23328.17 56770.87 23180.85 56770.87 M 24295.91 56661.65 24222.25 56732.77 24113.03 56770.87 23968.25 56770.87 23859.03 56732.77 23785.37 56661.65 23785.37 56587.99 23820.93 56516.87 23859.03 56478.77 23930.15 56443.21 24148.59 56369.55 24222.25 56333.99 24257.81 56298.43 24295.91 56224.77 24295.91 56115.55 24222.25 56041.89 24113.03 56006.33 23968.25 56006.33 23859.03 56041.89 23785.37 56115.55 M 24534.67 56770.87 24534.67 56006.33 M 22942.09 53793.99 22903.99 53867.65 22832.87 53938.77 22759.21 53976.87 22614.43 53976.87 22540.77 53938.77 22469.65 53867.65 22431.55 53793.99 22395.99 53684.77 22395.99 53504.43 22431.55 53395.21 22469.65 53321.55 22540.77 53247.89 22614.43 53212.33 22759.21 53212.33 22832.87 53247.89 22903.99 53321.55 22942.09 53395.21 M 23691.39 53867.65 23617.73 53938.77 23508.51 53976.87 23363.73 53976.87 23254.51 53938.77 23180.85 53867.65 23180.85 53793.99 23218.95 53722.87 23254.51 53684.77 23325.63 53649.21 23544.07 53575.55 23617.73 53539.99 23653.29 53504.43 23691.39 53430.77 23691.39 53321.55 23617.73 53247.89 23508.51 53212.33 23363.73 53212.33 23254.51 53247.89 23180.85 53321.55 M 23930.15 53976.87 23930.15 53212.33 M 23930.15 53976.87 24440.69 53212.33 M 24440.69 53976.87 24440.69 53212.33 M 22141.99 51436.87 22434.09 50672.33 M 22723.65 51436.87 22434.09 50672.33 M 23508.51 51253.99 23472.95 51327.65 23399.29 51398.77 23328.17 51436.87 23180.85 51436.87 23109.73 51398.77 23036.07 51327.65 23000.51 51253.99 22964.95 51144.77 22964.95 50964.43 23000.51 50855.21 23036.07 50781.55 23109.73 50707.89 23180.85 50672.33 23328.17 50672.33 23399.29 50707.89 23472.95 50781.55 23508.51 50855.21 M 24295.91 51253.99 24257.81 51327.65 24186.69 51398.77 24113.03 51436.87 23968.25 51436.87 23894.59 51398.77 23820.93 51327.65 23785.37 51253.99 23749.81 51144.77 23749.81 50964.43 23785.37 50855.21 23820.93 50781.55 23894.59 50707.89 23968.25 50672.33 24113.03 50672.33 24186.69 50707.89 24257.81 50781.55 24295.91 50855.21 M 31031.99 59056.87 31031.99 58292.33 M 31031.99 59056.87 31324.09 58292.33 M 31613.65 59056.87 31324.09 58292.33 M 31613.65 59056.87 31613.65 58292.33 M 31854.95 59056.87 31854.95 58292.33 M 32601.71 58947.65 32530.59 59018.77 32421.37 59056.87 32276.59 59056.87 32167.37 59018.77 32093.71 58947.65 32093.71 58873.99 32129.27 58802.87 32167.37 58764.77 32238.49 58729.21 32456.93 58655.55 32530.59 58619.99 32566.15 58584.43 32601.71 58510.77 32601.71 58401.55 32530.59 58327.89 32421.37 58292.33 32276.59 58292.33 32167.37 58327.89 32093.71 58401.55 M 33061.45 59056.87 32987.79 59018.77 32916.67 58947.65 32878.57 58873.99 32843.01 58764.77 32843.01 58584.43 32878.57 58475.21 32916.67 58401.55 32987.79 58327.89 33061.45 58292.33 33206.23 58292.33 33279.89 58327.89 33351.01 58401.55 33389.11 58475.21 33424.67 58584.43 33424.67 58764.77 33389.11 58873.99 33351.01 58947.65 33279.89 59018.77 33206.23 59056.87 33061.45 59056.87 M 31539.99 56407.65 31468.87 56478.77 31359.65 56516.87 31214.87 56516.87 31105.65 56478.77 31031.99 56407.65 31031.99 56333.99 31067.55 56262.87 31105.65 56224.77 31176.77 56189.21 31395.21 56115.55 31468.87 56079.99 31504.43 56044.43 31539.99 55970.77 31539.99 55861.55 31468.87 55787.89 31359.65 55752.33 31214.87 55752.33 31105.65 55787.89 31031.99 55861.55 M 32327.39 56333.99 32289.29 56407.65 32218.17 56478.77 32144.51 56516.87 31999.73 56516.87 31926.07 56478.77 31854.95 56407.65 31816.85 56333.99 31781.29 56224.77 31781.29 56044.43 31816.85 55935.21 31854.95 55861.55 31926.07 55787.89 31999.73 55752.33 32144.51 55752.33 32218.17 55787.89 32289.29 55861.55 32327.39 55935.21 M 32566.15 56516.87 32566.15 55752.33 M 33076.69 56516.87 32566.15 56006.33 M 32749.03 56189.21 33076.69 55752.33 M 31578.09 53793.99 31539.99 53867.65 31468.87 53938.77 31395.21 53976.87 31250.43 53976.87 31176.77 53938.77 31105.65 53867.65 31067.55 53793.99 31031.99 53684.77 31031.99 53504.43 31067.55 53395.21 31105.65 53321.55 31176.77 53247.89 31250.43 53212.33 31395.21 53212.33 31468.87 53247.89 31539.99 53321.55 31578.09 53395.21 M 31816.85 53976.87 31816.85 53212.33 M 31816.85 53976.87 32289.29 53976.87 M 31816.85 53613.65 32108.95 53613.65 M 31816.85 53212.33 32289.29 53212.33 M 31578.09 51253.99 31539.99 51327.65 31468.87 51398.77 31395.21 51436.87 31250.43 51436.87 31176.77 51398.77 31105.65 51327.65 31067.55 51253.99 31031.99 51144.77 31031.99 50964.43 31067.55 50855.21 31105.65 50781.55 31176.77 50707.89 31250.43 50672.33 31395.21 50672.33 31468.87 50707.89 31539.99 50781.55 31578.09 50855.21 31578.09 50964.43 M 31395.21 50964.43 31578.09 50964.43 M 31816.85 51436.87 31816.85 50672.33 M 31816.85 51436.87 32327.39 50672.33 M 32327.39 51436.87 32327.39 50672.33 M 32566.15 51436.87 32566.15 50672.33 M 32566.15 51436.87 32820.15 51436.87 32929.37 51398.77 33003.03 51327.65 33038.59 51253.99 33076.69 51144.77 33076.69 50964.43 33038.59 50855.21 33003.03 50781.55 32929.37 50707.89 32820.15 50672.33 32566.15 50672.33 M 16752.11 51761.99 18184.67 51761.99 M 16752.11 51761.99 18184.67 52717.03 M 16752.11 52717.03 18184.67 52717.03 M 16752.11 53166.61 18184.67 53166.61 M 16752.11 53166.61 16752.11 53781.29 16820.69 53984.49 16889.27 54053.07 17023.89 54121.65 17161.05 54121.65 17298.21 54053.07 17364.25 53984.49 17432.83 53781.29 17432.83 53166.61 M 17432.83 53644.13 18184.67 54121.65 M 16752.11 54571.23 18184.67 54571.23 M 16752.11 54571.23 16752.11 55457.69 M 17432.83 54571.23 17432.83 55117.33 M 17092.47 55975.85 17023.89 55975.85 16889.27 56044.43 16820.69 56113.01 16752.11 56247.63 16752.11 56521.95 16820.69 56656.57 16889.27 56725.15 17023.89 56793.73 17161.05 56793.73 17298.21 56725.15 17501.41 56587.99 18184.67 55907.27 18184.67 56862.31 M 16752.11 57992.61 17707.15 57311.89 17707.15 58335.51 M 16752.11 57992.61 18184.67 57992.61 M 16752.11 58785.09 18184.67 58785.09 18184.67 59602.97 M 16752.11 60461.49 16820.69 60258.29 17023.89 60121.13 17364.25 60052.55 17569.99 60052.55 17910.35 60121.13 18116.09 60258.29 18184.67 60461.49 18184.67 60598.65 18116.09 60801.85 17910.35 60939.01 17569.99 61007.59 17364.25 61007.59 17023.89 60939.01 16820.69 60801.85 16752.11 60598.65 16752.11 60461.49 M 17023.89 61457.17 16955.31 61594.33 16752.11 61797.53 18184.67 61797.53" fill="none" stroke-width="203.2"/><path d="M 30001.2 68326.86 30090.11 68372.58 30227.27 68509.74 30227.27 67554.7 M 30798.77 68509.74 30664.15 68464.02 30572.7 68326.86 30526.99 68100.8 30526.99 67963.64 30572.7 67737.58 30664.15 67600.42 30798.77 67554.7 30890.2 67554.7 31027.36 67600.42 31118.81 67737.58 31164.52 67963.64 31164.52 68100.8 31118.81 68326.86 31027.36 68464.02 30890.2 68509.74 30798.77 68509.74 M 31464.25 68189.7 31464.25 67737.58 31509.97 67600.42 31598.86 67554.7 31736.02 67554.7 31827.47 67600.42 31964.63 67737.58 M 31964.63 68189.7 31964.63 67554.7 M 32264.34 68509.74 32264.34 67554.7 M 32264.34 68509.74 32853.63 68509.74 M 32264.34 68055.08 32627.56 68055.08 M 32779.79 72894.19 32726.45 72998.33 32622.31 73102.46 32520.71 73153.27 32312.43 73153.27 32208.29 73102.46 32104.15 72998.33 32050.81 72894.19 32000.01 72736.7 32000.01 72477.62 32050.81 72322.69 32104.15 72218.54 32208.29 72114.4 32312.43 72063.61 32520.71 72063.61 32622.31 72114.4 32726.45 72218.54 32779.79 72322.69 M 33226.83 73153.27 33798.33 73153.27 33485.91 72736.7 33640.85 72736.7 33744.99 72685.9 33798.33 72635.11 33849.13 72477.62 33849.13 72373.48 33798.33 72218.54 33694.19 72114.4 33536.71 72063.61 33381.77 72063.61 33226.83 72114.4 33173.49 72165.2 33122.69 72269.35 M 25000.96 68327.93 25089.86 68373.65 25227.02 68508.27 25227.02 67555.77 M 25801.06 68508.27 25663.9 68462.55 25572.46 68327.93 25526.74 68099.33 25526.74 67964.71 25572.46 67736.11 25663.9 67598.95 25801.06 67555.77 25889.96 67555.77 26027.12 67598.95 26118.56 67736.11 26164.28 67964.71 26164.28 68099.33 26118.56 68327.93 26027.12 68462.55 25889.96 68508.27 25801.06 68508.27 M 26464 68190.77 26464 67736.11 26509.72 67598.95 26601.16 67555.77 26735.78 67555.77 26827.22 67598.95 26964.38 67736.11 M 26964.38 68190.77 26964.38 67555.77 M 27264.1 68508.27 27264.1 67555.77 M 27264.1 68508.27 27853.38 68508.27 M 27264.1 68053.61 27627.32 68053.61 M 23279.83 72394.21 23226.49 72498.35 23122.35 72602.49 23020.75 72653.29 22812.47 72653.29 22708.33 72602.49 22604.19 72498.35 22550.85 72394.21 22500.05 72236.73 22500.05 71977.65 22550.85 71822.71 22604.19 71718.57 22708.33 71614.43 22812.47 71563.63 23020.75 71563.63 23122.35 71614.43 23226.49 71718.57 23279.83 71822.71 M 23622.73 72445.01 23726.87 72498.35 23881.81 72653.29 23881.81 71563.63 M 7500.03 84653.09 7500.03 83563.43 M 7500.03 84653.09 7967.39 84653.09 8122.33 84602.29 8175.67 84548.95 8226.47 84444.81 8226.47 84289.87 8175.67 84185.73 8122.33 84134.93 7967.39 84081.59 7500.03 84081.59 M 8830.99 84289.87 8726.85 84236.53 8622.71 84134.93 8569.37 83977.45 8569.37 83873.31 8622.71 83718.37 8726.85 83614.23 8830.99 83563.43 8985.93 83563.43 9090.07 83614.23 9194.21 83718.37 9245.01 83873.31 9245.01 83977.45 9194.21 84134.93 9090.07 84236.53 8985.93 84289.87 8830.99 84289.87 M 9587.91 84289.87 9796.19 83563.43 M 10004.47 84289.87 9796.19 83563.43 M 10004.47 84289.87 10212.75 83563.43 M 10421.03 84289.87 10212.75 83563.43 M 10763.93 83977.45 11386.23 83977.45 11386.23 84081.59 11335.43 84185.73 11282.09 84236.53 11177.95 84289.87 11023.01 84289.87 10918.87 84236.53 10814.73 84134.93 10763.93 83977.45 10763.93 83873.31 10814.73 83718.37 10918.87 83614.23 11023.01 83563.43 11177.95 83563.43 11282.09 83614.23 11386.23 83718.37 M 11729.13 84289.87 11729.13 83563.43 M 11729.13 83977.45 11779.93 84134.93 11884.07 84236.53 11988.21 84289.87 12145.69 84289.87 M 11500.02 89653.08 11500.02 88563.42 12122.32 88563.42 M 12465.22 89653.08 12465.22 88563.42 M 12465.22 89653.08 13140.86 89653.08 M 12465.22 89134.92 12881.78 89134.92 M 12465.22 88563.42 13140.86 88563.42 M 13483.76 89653.08 13483.76 88563.42 M 13483.76 89653.08 13849.52 89653.08 14004.46 89602.28 14108.6 89498.14 14159.4 89394 14212.74 89236.52 14212.74 88977.44 14159.4 88822.5 14108.6 88718.36 14004.46 88614.22 13849.52 88563.42 13483.76 88563.42 M 28000.4 83154.57 28000.4 82062.37 M 28000.4 83154.57 28467.76 83154.57 28622.7 83101.23 28676.04 83050.43 28726.84 82946.29 28726.84 82788.81 28676.04 82684.67 28622.7 82633.87 28467.76 82583.07 28000.4 82583.07 M 29382.16 83154.57 29278.02 83101.23 29173.88 82997.09 29123.08 82892.95 29069.74 82738.01 29069.74 82478.93 29123.08 82321.45 29173.88 82217.31 29278.02 82113.17 29382.16 82062.37 29590.44 82062.37 29694.58 82113.17 29798.72 82217.31 29849.52 82321.45 29900.32 82478.93 29900.32 82738.01 29849.52 82892.95 29798.72 82997.09 29694.58 83101.23 29590.44 83154.57 29382.16 83154.57 M 30608.98 83154.57 30608.98 82062.37 M 30243.22 83154.57 30972.2 83154.57 M 31365.9 82892.95 31365.9 82946.29 31419.24 83050.43 31470.04 83101.23 31574.18 83154.57 31782.46 83154.57 31886.6 83101.23 31937.4 83050.43 31990.74 82946.29 31990.74 82842.15 31937.4 82738.01 31833.26 82583.07 31315.1 82062.37 32041.54 82062.37 M 22916.56 84653.17 22500 83563.51 M 22916.56 84653.17 23330.58 83563.51 M 22654.94 83926.73 23175.64 83926.73 M 23673.48 84289.95 23673.48 83563.51 M 23673.48 83977.53 23726.82 84135.01 23830.96 84236.61 23935.1 84289.95 24090.04 84289.95 M 24432.94 84289.95 24432.94 83563.51 M 24432.94 84081.67 24587.88 84236.61 24692.02 84289.95 24849.5 84289.95 24951.1 84236.61 25004.44 84081.67 25004.44 83563.51 M 25004.44 84081.67 25159.38 84236.61 25263.52 84289.95 25421 84289.95 25522.6 84236.61 25575.94 84081.67 25575.94 83563.51 M 25918.84 83977.53 26541.14 83977.53 26541.14 84081.67 26490.34 84185.81 26437 84236.61 26335.4 84289.95 26177.92 84289.95 26073.78 84236.61 25969.64 84135.01 25918.84 83977.53 25918.84 83873.39 25969.64 83718.45 26073.78 83614.31 26177.92 83563.51 26335.4 83563.51 26437 83614.31 26541.14 83718.45 M 27508.88 84653.17 27508.88 83563.51 M 27508.88 84135.01 27404.74 84236.61 27300.6 84289.95 27145.66 84289.95 27041.52 84236.61 26937.38 84135.01 26884.04 83977.53 26884.04 83873.39 26937.38 83718.45 27041.52 83614.31 27145.66 83563.51 27300.6 83563.51 27404.74 83614.31 27508.88 83718.45 M 20000.01 89653.16 20000.01 88563.5 20622.31 88563.5 M 20965.21 89653.16 20965.21 88563.5 M 20965.21 89653.16 21640.85 89653.16 M 20965.21 89135 21381.77 89135 M 20965.21 88563.5 21640.85 88563.5 M 21983.75 89653.16 21983.75 88563.5 M 21983.75 89653.16 22349.51 89653.16 22504.45 89602.36 22608.59 89498.22 22659.39 89394.08 22712.73 89236.6 22712.73 88977.52 22659.39 88822.58 22608.59 88718.44 22504.45 88614.3 22349.51 88563.5 21983.75 88563.5 M 23055.63 89444.88 23159.77 89498.22 23314.71 89653.16 23314.71 88563.5" fill="none" stroke-width="152.4"/><path d="M 32793.94 71150.98 32793.94 67848.98 32889.95 67946.52 32979.86 68049.14 33063.68 68157.34 33140.39 68270.12 33210.5 68387.46 33273.49 68508.88 33329.37 68633.84 33377.12 68761.86 33417.76 68892.42 33450.27 69025 33474.65 69159.62 33490.91 69295.26 33499.04 69431.91 33499.04 69568.56 33490.91 69704.71 33474.65 69840.34 33450.27 69974.96 33417.76 70107.55 33377.12 70238.11 33329.37 70366.12 33273.49 70491.09 33210.5 70612.5 33140.39 70729.85 33063.68 70842.63 32979.86 70950.83 32889.95 71053.45"/><path d="M 27794.2 71150.98 27794.2 67848.98 27889.7 67946.52 27980.13 68049.14 28063.44 68157.34 28140.66 68270.12 28210.76 68387.46 28273.75 68508.88 28329.12 68633.84 28377.38 68761.86 28417.52 68892.42 28450.03 69025 28474.41 69159.62 28490.67 69295.26 28498.8 69431.91 28498.8 69568.56 28490.67 69704.71 28474.41 69840.34 28450.03 69974.96 28417.52 70107.55 28377.38 70238.11 28329.12 70366.12 28273.75 70491.09 28210.76 70612.5 28140.66 70729.85 28063.44 70842.63 27980.13 70950.83 27889.7 71053.45"/><path d="M 14725.67 79999.99 19199.98 79999.99 M 19999.98 78044.47 19999.98 75955.52 M 13999.99 78044.47 13999.99 75955.52 M 14725.67 74000 19274.3 74000 M 3225.67 79999.99 7699.98 79999.99 M 8499.98 78044.47 8499.98 75955.52 M 2499.99 78044.47 2499.99 75955.52 M 3225.67 74000 7774.3 74000 M 9109.98 5409.99 26889.98 5409.99 26889.98 48589.99 9109.98 48589.99 9109.98 5409.99 M 14189.98 9219.99 14189.98 1599.99 21809.98 1599.99 21809.98 9219.99 14189.98 9219.99 M 11727.99 64715.99 30523.99 64715.99 30523.99 49475.99 1313.99 49475.99 1313.99 64715.99 11727.99 64715.99 11727.99 49475.99 M 27729.99 52269.99 27729.99 49983.99 M 27729.99 52269.99 30015.99 52269.99 M 25189.99 60143.99 30015.99 60143.99 M 25189.99 60143.99 25189.99 49983.99 M 2329.99 63191.99 2329.99 58873.99 9695.99 58873.99 M 2583.99 57603.99 9695.99 57603.99 M 2583.99 56333.99 9695.99 56333.99 M 2583.99 55063.99 9695.99 55063.99 M 2583.99 53793.99 9441.99 53793.99 M 2583.99 52523.99 9441.99 52523.99 M 9695.99 58873.99 9695.99 57603.99 9949.99 57603.99 M 2583.99 57603.99 2583.99 56333.99 M 2583.99 55063.99 2583.99 53793.99 2837.99 53793.99 M 9695.99 56333.99 9695.99 55317.99 M 9441.99 53793.99 9441.99 52523.99 9695.99 52523.99 M 2583.99 51253.99 10711.99 51253.99 10711.99 58619.99 M 2583.99 51507.99 2583.99 52523.99 2837.99 52269.99 M 29483.86 70999.88 30499.86 70999.88 M 29999.99 71500 29999.99 70484 M 24483.87 70999.88 25499.87 70999.88 M 25000 71500 25000 70484 M 8677.12 85500 8949.38 85500 M 11050.62 85500 11322.88 85500 M 32399.9 74900.68 32399.9 73600.71 24500 73600.71 24500 79500.37 26400.17 81400.54 30400.16 81400.54 32399.9 79400.8 32399.9 74900.68 M 26000.12 78500.63 31099.93 78500.63 31099.93 77000.5 26000.12 77000.5 26000.12 78500.63 M 23677.11 85500 23949.38 85500 M 26050.62 85500 26322.88 85500 M 9039.78 88754.41 A 1999.9942241 1999.9942241 0 0 1 8677.12 85500.01 M 11322.89 85500.01 A 1999.9953736 1999.9953736 0 0 1 10960.23 88754.41 M 24039.78 88754.41 A 1999.9942241 1999.9942241 0 0 1 23677.12 85500.01 M 26322.88 85500.01 A 1999.9953736 1999.9953736 0 0 1 25960.22 88754.41 M 17703.55 77048.36 A 749.3 749.3 0 0 1 16204.95 77048.36 749.3 749.3 0 0 1 17703.55 77048.36 M 18704.31 77048.36 A 1750.06 1750.06 0 0 1 15204.19 77048.36 1750.06 1750.06 0 0 1 18704.31 77048.36 M 6203.7 77048.36 A 749.3 749.3 0 0 1 4705.1 77048.36 749.3 749.3 0 0 1 6203.7 77048.36 M 7204.46 77048.36 A 1750.06 1750.06 0 0 1 3704.34 77048.36 1750.06 1750.06 0 0 1 7204.46 77048.36" fill="none" stroke-width="254"/><path d="M 33500.06 69499.99 A 2500.12 2500.12 0 0 1 28499.82 69499.99 2500.12 2500.12 0 0 1 33500.06 69499.99 M 28500.07 69499.99 A 2500.12 2500.12 0 0 1 23499.83 69499.99 2500.12 2500.12 0 0 1 28500.07 69499.99" fill="none" stroke-width="300"/></g><g id="HxRwrdzPqYnQLmd6FvdB_top_copper"><path d="M 17028.15 19644.36 17028.15 34983.42 16131.54 35882.57 16131.54 64236.6 13749.02 66616.58 13749.02 67249.04 8750.29 72250.29 8750.29 74749.65 M 2189.47 55999.37 7868.92 61678.81 7868.92 71358.76 M 4290.05 49979.57 4290.05 40492.68 4470.39 40312.34 M 10380.97 9220.2 17937.47 16776.7 17937.47 35351.71 17033.23 36255.95 17033.23 53850.54 17129.76 53947.05 M 20756.88 26019.76 21211.54 25565.1 21211.54 22451.05 21937.97 21724.62 22936.2 21724.62 23301.95 22090.37 23301.95 86570.81 25001.22 88270.08 M 12954 43489.87 12954 47312.57 M 9809.47 49999.89 9837.42 49974.5 9837.42 47325.28 M 26459.18 51000.65 24203.65 53256.18 24203.65 59994.79 25107.9 60896.5 25107.9 60896.5 25107.9 64607.44 29999.93 69499.47 M 18851.87 37086.54 21234.4 39469.05 21234.4 54922.42 M 10380.97 14300.2 13942.05 17861.28 13942.05 48102.52 15153.63 49316.63 M 26459.18 53540.65 25107.9 54891.94 25107.9 59618.87 25460.95 59971.94 30119.31 59971.94 33319.72 56774.07 33319.72 53258.71 M 17000.21 88000.84 17000.21 66459.1 22364.7 61094.62 22364.7 22636.47 M 25620.97 42240.2 25775.91 42240.2 31358.84 36654.73 31358.84 20612.1 M 11229.34 4478.02 20304.75 13550.89 20304.75 25189.18 19850.09 25643.84 19850.09 29309.05 20540.97 29999.94 M 9809.47 55999.37 8122.92 54312.81 8122.92 39415.71 10380.97 37160.2 M 28999.18 51000.65 28999.18 45620.94 25620.97 42240.2 M 26001.97 75001.12 26001.97 73347.58 27000.2 72349.36 27000.2 69499.47 M 11229.34 2999.73 11229.34 4478.02 M 14460.21 51998.87 14460.21 52001.42 14460.21 57000.13 M 9809.47 68000.87 14460.21 63350.13 14460.21 57000.13 M 2189.47 61998.86 2189.47 65001.13 M 2189.47 58999.12 2189.47 61998.86 M 9809.47 61998.86 7221.21 59410.6 7221.21 38425.12 8107.68 37536.12 8107.68 31813.5 10380.97 29540.2 M 10380.97 24460.2 11902.44 25981.65 11902.44 62908.18 9809.47 65001.13 M 10380.97 21920.2 7061.2 25239.97 7061.2 36878.26 5567.68 38371.78 5567.68 57152.54 M 28999.18 53540.65 31877 50662.84 31877 39684.95 M 27124.65 19547.84 29461.45 21884.63 29461.45 37269.42 M 19540.22 57000.13 19540.22 62400.18 15890.23 66050.15 15890.23 81610.2 14500.86 83002.12 M 2189.47 49999.89 2189.47 52999.63 M 28999.18 56080.65 32974.27 52105.55 32974.27 13794.73 28399.74 9220.2 25620.97 9220.2 M 21239.47 60774.57 21239.47 56487.05 17937.47 53185.05 17937.47 36629.34 18839.18 35725.1 18839.18 22588.21 19194.78 22232.62" fill="none" stroke-width="600"/><use xlink:href="#mF8zjP67BRB9Uu2W0RJs_pad-11" x="31358.9" y="14613.35"/><use xlink:href="#mF8zjP67BRB9Uu2W0RJs_pad-12" x="31358.84" y="16613.37"/><use xlink:href="#mF8zjP67BRB9Uu2W0RJs_pad-12" x="31358.84" y="18613.37"/><use xlink:href="#mF8zjP67BRB9Uu2W0RJs_pad-12" x="31358.84" y="20613.37"/><use xlink:href="#mF8zjP67BRB9Uu2W0RJs_pad-13" x="9809.98" y="52999.89"/><use xlink:href="#mF8zjP67BRB9Uu2W0RJs_pad-13" x="2189.98" y="52999.89"/><use xlink:href="#mF8zjP67BRB9Uu2W0RJs_pad-13" x="9809.98" y="49999.89"/><use xlink:href="#mF8zjP67BRB9Uu2W0RJs_pad-13" x="2189.98" y="49999.89"/><use xlink:href="#mF8zjP67BRB9Uu2W0RJs_pad-13" x="9809.98" y="55999.88"/><use xlink:href="#mF8zjP67BRB9Uu2W0RJs_pad-13" x="2189.98" y="55999.88"/><use xlink:href="#mF8zjP67BRB9Uu2W0RJs_pad-14" x="4999.98" y="34619.94"/><use xlink:href="#mF8zjP67BRB9Uu2W0RJs_pad-14" x="4999.98" y="19379.94"/><use xlink:href="#mF8zjP67BRB9Uu2W0RJs_pad-15" x="11230.01" y="3000"/><use xlink:href="#mF8zjP67BRB9Uu2W0RJs_pad-16" x="13770.1" y="2999.99"/><use xlink:href="#mF8zjP67BRB9Uu2W0RJs_pad-15" x="20730.01" y="3000"/><use xlink:href="#mF8zjP67BRB9Uu2W0RJs_pad-16" x="23269.95" y="2999.99"/><use xlink:href="#mF8zjP67BRB9Uu2W0RJs_pad-17" x="19539.96" y="52000.14"/><use xlink:href="#mF8zjP67BRB9Uu2W0RJs_pad-17" x="14459.96" y="52000.14"/><use xlink:href="#mF8zjP67BRB9Uu2W0RJs_pad-17" x="19540.22" y="57000.13"/><use xlink:href="#mF8zjP67BRB9Uu2W0RJs_pad-17" x="14460.21" y="57000.13"/><use xlink:href="#mF8zjP67BRB9Uu2W0RJs_pad-13" x="9809.98" y="68000.11"/><use xlink:href="#mF8zjP67BRB9Uu2W0RJs_pad-13" x="2189.98" y="68000.11"/><use xlink:href="#mF8zjP67BRB9Uu2W0RJs_pad-13" x="9809.98" y="65000.12"/><use xlink:href="#mF8zjP67BRB9Uu2W0RJs_pad-13" x="2189.98" y="65000.12"/><use xlink:href="#mF8zjP67BRB9Uu2W0RJs_pad-13" x="9809.98" y="62000.12"/><use xlink:href="#mF8zjP67BRB9Uu2W0RJs_pad-13" x="2189.98" y="62000.12"/><use xlink:href="#mF8zjP67BRB9Uu2W0RJs_pad-13" x="9809.98" y="58999.88"/><use xlink:href="#mF8zjP67BRB9Uu2W0RJs_pad-13" x="2189.98" y="58999.88"/><use xlink:href="#mF8zjP67BRB9Uu2W0RJs_pad-17" x="20539.96" y="29999.94"/><use xlink:href="#mF8zjP67BRB9Uu2W0RJs_pad-17" x="15459.96" y="29999.94"/><use xlink:href="#mF8zjP67BRB9Uu2W0RJs_pad-18" x="19499.35" y="83000.13"/><use xlink:href="#mF8zjP67BRB9Uu2W0RJs_pad-19" x="14500.6" y="83001.35"/><use xlink:href="#mF8zjP67BRB9Uu2W0RJs_pad-19" x="16999.96" y="88000.07"/><use xlink:href="#mF8zjP67BRB9Uu2W0RJs_pad-20" x="20249.89" y="67250.05"/><use xlink:href="#mF8zjP67BRB9Uu2W0RJs_pad-20" x="13750.03" y="67250.05"/><use xlink:href="#mF8zjP67BRB9Uu2W0RJs_pad-20" x="13750.03" y="71749.92"/><use xlink:href="#mF8zjP67BRB9Uu2W0RJs_pad-20" x="20249.89" y="71749.92"/><use xlink:href="#mF8zjP67BRB9Uu2W0RJs_pad-20" x="13750.03" y="74750.16"/><use xlink:href="#mF8zjP67BRB9Uu2W0RJs_pad-20" x="20249.89" y="74750.16"/><use xlink:href="#mF8zjP67BRB9Uu2W0RJs_pad-20" x="20249.89" y="79250.03"/><use xlink:href="#mF8zjP67BRB9Uu2W0RJs_pad-20" x="13750.03" y="79250.03"/><use xlink:href="#mF8zjP67BRB9Uu2W0RJs_pad-20" x="2250.18" y="74750.16"/><use xlink:href="#mF8zjP67BRB9Uu2W0RJs_pad-20" x="8750.04" y="74750.16"/><use xlink:href="#mF8zjP67BRB9Uu2W0RJs_pad-20" x="8750.04" y="79250.03"/><use xlink:href="#mF8zjP67BRB9Uu2W0RJs_pad-20" x="2250.18" y="79250.03"/><use xlink:href="#mF8zjP67BRB9Uu2W0RJs_pad-21" x="10379.96" y="44779.94"/><use xlink:href="#mF8zjP67BRB9Uu2W0RJs_pad-17" x="10379.96" y="42239.94"/><use xlink:href="#mF8zjP67BRB9Uu2W0RJs_pad-17" x="10379.96" y="39699.94"/><use xlink:href="#mF8zjP67BRB9Uu2W0RJs_pad-17" x="10379.96" y="37159.94"/><use xlink:href="#mF8zjP67BRB9Uu2W0RJs_pad-17" x="10379.96" y="34619.94"/><use xlink:href="#mF8zjP67BRB9Uu2W0RJs_pad-17" x="10379.96" y="32079.94"/><use xlink:href="#mF8zjP67BRB9Uu2W0RJs_pad-17" x="10379.96" y="29539.94"/><use xlink:href="#mF8zjP67BRB9Uu2W0RJs_pad-17" x="10379.96" y="26999.94"/><use xlink:href="#mF8zjP67BRB9Uu2W0RJs_pad-17" x="10379.96" y="24459.94"/><use xlink:href="#mF8zjP67BRB9Uu2W0RJs_pad-17" x="10379.96" y="21919.94"/><use xlink:href="#mF8zjP67BRB9Uu2W0RJs_pad-17" x="10379.96" y="19379.94"/><use xlink:href="#mF8zjP67BRB9Uu2W0RJs_pad-17" x="10379.96" y="16839.94"/><use xlink:href="#mF8zjP67BRB9Uu2W0RJs_pad-17" x="10379.96" y="14299.94"/><use xlink:href="#mF8zjP67BRB9Uu2W0RJs_pad-17" x="10379.96" y="11759.94"/><use xlink:href="#mF8zjP67BRB9Uu2W0RJs_pad-17" x="10379.96" y="9219.94"/><use xlink:href="#mF8zjP67BRB9Uu2W0RJs_pad-17" x="25619.96" y="44779.94"/><use xlink:href="#mF8zjP67BRB9Uu2W0RJs_pad-17" x="25619.96" y="42239.94"/><use xlink:href="#mF8zjP67BRB9Uu2W0RJs_pad-17" x="25619.96" y="39699.94"/><use xlink:href="#mF8zjP67BRB9Uu2W0RJs_pad-17" x="25619.96" y="37159.94"/><use xlink:href="#mF8zjP67BRB9Uu2W0RJs_pad-17" x="25619.96" y="34619.94"/><use xlink:href="#mF8zjP67BRB9Uu2W0RJs_pad-17" x="25619.96" y="32079.94"/><use xlink:href="#mF8zjP67BRB9Uu2W0RJs_pad-17" x="25619.96" y="29539.94"/><use xlink:href="#mF8zjP67BRB9Uu2W0RJs_pad-17" x="25619.96" y="26999.94"/><use xlink:href="#mF8zjP67BRB9Uu2W0RJs_pad-17" x="25619.96" y="24459.94"/><use xlink:href="#mF8zjP67BRB9Uu2W0RJs_pad-17" x="25619.96" y="21919.94"/><use xlink:href="#mF8zjP67BRB9Uu2W0RJs_pad-17" x="25619.96" y="19379.94"/><use xlink:href="#mF8zjP67BRB9Uu2W0RJs_pad-17" x="25619.96" y="16839.94"/><use xlink:href="#mF8zjP67BRB9Uu2W0RJs_pad-17" x="25619.96" y="14299.94"/><use xlink:href="#mF8zjP67BRB9Uu2W0RJs_pad-17" x="25619.96" y="11759.94"/><use xlink:href="#mF8zjP67BRB9Uu2W0RJs_pad-17" x="25619.96" y="9219.94"/><use xlink:href="#mF8zjP67BRB9Uu2W0RJs_pad-22" x="28999.94" y="50999.89"/><use xlink:href="#mF8zjP67BRB9Uu2W0RJs_pad-22" x="26459.94" y="50999.89"/><use xlink:href="#mF8zjP67BRB9Uu2W0RJs_pad-22" x="28999.94" y="53539.89"/><use xlink:href="#mF8zjP67BRB9Uu2W0RJs_pad-22" x="26459.94" y="53539.89"/><use xlink:href="#mF8zjP67BRB9Uu2W0RJs_pad-22" x="28999.94" y="56079.89"/><use xlink:href="#mF8zjP67BRB9Uu2W0RJs_pad-22" x="26459.94" y="56079.89"/><use xlink:href="#mF8zjP67BRB9Uu2W0RJs_pad-22" x="28999.94" y="58619.89"/><use xlink:href="#mF8zjP67BRB9Uu2W0RJs_pad-22" x="26459.94" y="58619.89"/><use xlink:href="#mF8zjP67BRB9Uu2W0RJs_pad-23" x="29999.93" y="69499.98"/><use xlink:href="#mF8zjP67BRB9Uu2W0RJs_pad-23" x="31999.93" y="69499.98"/><use xlink:href="#mF8zjP67BRB9Uu2W0RJs_pad-23" x="24999.95" y="69499.98"/><use xlink:href="#mF8zjP67BRB9Uu2W0RJs_pad-23" x="26999.94" y="69499.98"/><use xlink:href="#mF8zjP67BRB9Uu2W0RJs_pad-24" x="9999.97" y="88270.08"/><use xlink:href="#mF8zjP67BRB9Uu2W0RJs_pad-24" x="9999.97" y="85730.08"/><use xlink:href="#mF8zjP67BRB9Uu2W0RJs_pad-18" x="26000.63" y="75000.12"/><use xlink:href="#mF8zjP67BRB9Uu2W0RJs_pad-19" x="30999.43" y="75001.37"/><use xlink:href="#mF8zjP67BRB9Uu2W0RJs_pad-19" x="28500.06" y="80000.09"/><use xlink:href="#mF8zjP67BRB9Uu2W0RJs_pad-24" x="24999.95" y="88270.08"/><use xlink:href="#mF8zjP67BRB9Uu2W0RJs_pad-24" x="24999.95" y="85730.08"/><use xlink:href="#mF8zjP67BRB9Uu2W0RJs_pad-25" x="21239.47" y="60774.57"/><use xlink:href="#mF8zjP67BRB9Uu2W0RJs_pad-25" x="19194.78" y="22232.62"/><use xlink:href="#mF8zjP67BRB9Uu2W0RJs_pad-25" x="31877" y="39684.95"/><use xlink:href="#mF8zjP67BRB9Uu2W0RJs_pad-25" x="27124.65" y="19547.84"/><use xlink:href="#mF8zjP67BRB9Uu2W0RJs_pad-25" x="29461.45" y="37269.42"/><use xlink:href="#mF8zjP67BRB9Uu2W0RJs_pad-25" x="5567.68" y="57152.54"/><use xlink:href="#mF8zjP67BRB9Uu2W0RJs_pad-25" x="22364.7" y="22636.47"/><use xlink:href="#mF8zjP67BRB9Uu2W0RJs_pad-25" x="33319.72" y="53258.71"/><use xlink:href="#mF8zjP67BRB9Uu2W0RJs_pad-25" x="15153.63" y="49316.63"/><use xlink:href="#mF8zjP67BRB9Uu2W0RJs_pad-25" x="18851.87" y="37086.54"/><use xlink:href="#mF8zjP67BRB9Uu2W0RJs_pad-25" x="21234.4" y="54922.42"/><use xlink:href="#mF8zjP67BRB9Uu2W0RJs_pad-25" x="9837.42" y="47325.28"/><use xlink:href="#mF8zjP67BRB9Uu2W0RJs_pad-25" x="12954" y="47312.57"/><use xlink:href="#mF8zjP67BRB9Uu2W0RJs_pad-25" x="12954" y="43489.87"/><use xlink:href="#mF8zjP67BRB9Uu2W0RJs_pad-25" x="20756.88" y="26019.76"/><use xlink:href="#mF8zjP67BRB9Uu2W0RJs_pad-25" x="17129.76" y="53947.05"/><use xlink:href="#mF8zjP67BRB9Uu2W0RJs_pad-25" x="4290.05" y="49979.57"/><use xlink:href="#mF8zjP67BRB9Uu2W0RJs_pad-25" x="4470.39" y="40312.34"/><use xlink:href="#mF8zjP67BRB9Uu2W0RJs_pad-25" x="7868.92" y="71358.76"/><use xlink:href="#mF8zjP67BRB9Uu2W0RJs_pad-25" x="17028.15" y="19644.36"/></g><g id="HxRwrdzPqYnQLmd6FvdB_top_drill1"><use xlink:href="#WUjmOoWWfUto-o8JtdHt_pad-1" x="21239" y="60775"/><use xlink:href="#WUjmOoWWfUto-o8JtdHt_pad-1" x="19195" y="22233"/><use xlink:href="#WUjmOoWWfUto-o8JtdHt_pad-1" x="31877" y="39685"/><use xlink:href="#WUjmOoWWfUto-o8JtdHt_pad-1" x="27125" y="19548"/><use xlink:href="#WUjmOoWWfUto-o8JtdHt_pad-1" x="29461" y="37269"/><use xlink:href="#WUjmOoWWfUto-o8JtdHt_pad-1" x="5568" y="57153"/><use xlink:href="#WUjmOoWWfUto-o8JtdHt_pad-1" x="22365" y="22636"/><use xlink:href="#WUjmOoWWfUto-o8JtdHt_pad-1" x="33320" y="53259"/><use xlink:href="#WUjmOoWWfUto-o8JtdHt_pad-1" x="15154" y="49317"/><use xlink:href="#WUjmOoWWfUto-o8JtdHt_pad-1" x="18852" y="37087"/><use xlink:href="#WUjmOoWWfUto-o8JtdHt_pad-1" x="21234" y="54922"/><use xlink:href="#WUjmOoWWfUto-o8JtdHt_pad-1" x="9837" y="47325"/><use xlink:href="#WUjmOoWWfUto-o8JtdHt_pad-1" x="12954" y="47313"/><use xlink:href="#WUjmOoWWfUto-o8JtdHt_pad-1" x="12954" y="43490"/><use xlink:href="#WUjmOoWWfUto-o8JtdHt_pad-1" x="20757" y="26020"/><use xlink:href="#WUjmOoWWfUto-o8JtdHt_pad-1" x="17130" y="53947"/><use xlink:href="#WUjmOoWWfUto-o8JtdHt_pad-1" x="4290" y="49980"/><use xlink:href="#WUjmOoWWfUto-o8JtdHt_pad-1" x="4470" y="40312"/><use xlink:href="#WUjmOoWWfUto-o8JtdHt_pad-1" x="7869" y="71359"/><use xlink:href="#WUjmOoWWfUto-o8JtdHt_pad-1" x="17028" y="19644"/><path d="M 31356 14613 31361 14613 M 31356 16612 31361 16612 M 31356 18614 31361 18614 M 31356 20613 31361 20613" fill="none" stroke-width="701"/><use xlink:href="#WUjmOoWWfUto-o8JtdHt_pad-3" x="19540" y="52000"/><use xlink:href="#WUjmOoWWfUto-o8JtdHt_pad-3" x="14460" y="52000"/><use xlink:href="#WUjmOoWWfUto-o8JtdHt_pad-3" x="19540" y="57000"/><use xlink:href="#WUjmOoWWfUto-o8JtdHt_pad-3" x="14460" y="57000"/><use xlink:href="#WUjmOoWWfUto-o8JtdHt_pad-4" x="30000" y="69500"/><use xlink:href="#WUjmOoWWfUto-o8JtdHt_pad-4" x="32000" y="69500"/><use xlink:href="#WUjmOoWWfUto-o8JtdHt_pad-4" x="25000" y="69500"/><use xlink:href="#WUjmOoWWfUto-o8JtdHt_pad-4" x="27000" y="69500"/><use xlink:href="#WUjmOoWWfUto-o8JtdHt_pad-5" x="9810" y="53000"/><use xlink:href="#WUjmOoWWfUto-o8JtdHt_pad-5" x="2190" y="53000"/><use xlink:href="#WUjmOoWWfUto-o8JtdHt_pad-5" x="9810" y="50000"/><use xlink:href="#WUjmOoWWfUto-o8JtdHt_pad-5" x="2190" y="50000"/><use xlink:href="#WUjmOoWWfUto-o8JtdHt_pad-5" x="9810" y="56000"/><use xlink:href="#WUjmOoWWfUto-o8JtdHt_pad-5" x="2190" y="56000"/><use xlink:href="#WUjmOoWWfUto-o8JtdHt_pad-5" x="9810" y="68000"/><use xlink:href="#WUjmOoWWfUto-o8JtdHt_pad-5" x="2190" y="68000"/><use xlink:href="#WUjmOoWWfUto-o8JtdHt_pad-5" x="9810" y="65000"/><use xlink:href="#WUjmOoWWfUto-o8JtdHt_pad-5" x="2190" y="65000"/><use xlink:href="#WUjmOoWWfUto-o8JtdHt_pad-5" x="9810" y="62000"/><use xlink:href="#WUjmOoWWfUto-o8JtdHt_pad-5" x="2190" y="62000"/><use xlink:href="#WUjmOoWWfUto-o8JtdHt_pad-5" x="9810" y="59000"/><use xlink:href="#WUjmOoWWfUto-o8JtdHt_pad-5" x="2190" y="59000"/><use xlink:href="#WUjmOoWWfUto-o8JtdHt_pad-5" x="20540" y="30000"/><use xlink:href="#WUjmOoWWfUto-o8JtdHt_pad-5" x="15460" y="30000"/><use xlink:href="#WUjmOoWWfUto-o8JtdHt_pad-6" x="10000" y="88270"/><use xlink:href="#WUjmOoWWfUto-o8JtdHt_pad-6" x="10000" y="85730"/><use xlink:href="#WUjmOoWWfUto-o8JtdHt_pad-6" x="25000" y="88270"/><use xlink:href="#WUjmOoWWfUto-o8JtdHt_pad-6" x="25000" y="85730"/><use xlink:href="#WUjmOoWWfUto-o8JtdHt_pad-7" x="10380" y="44780"/><use xlink:href="#WUjmOoWWfUto-o8JtdHt_pad-7" x="10380" y="42240"/><use xlink:href="#WUjmOoWWfUto-o8JtdHt_pad-7" x="10380" y="39700"/><use xlink:href="#WUjmOoWWfUto-o8JtdHt_pad-7" x="10380" y="37160"/><use xlink:href="#WUjmOoWWfUto-o8JtdHt_pad-7" x="10380" y="34620"/><use xlink:href="#WUjmOoWWfUto-o8JtdHt_pad-7" x="10380" y="32080"/><use xlink:href="#WUjmOoWWfUto-o8JtdHt_pad-7" x="10380" y="29540"/><use xlink:href="#WUjmOoWWfUto-o8JtdHt_pad-7" x="10380" y="27000"/><use xlink:href="#WUjmOoWWfUto-o8JtdHt_pad-7" x="10380" y="24460"/><use xlink:href="#WUjmOoWWfUto-o8JtdHt_pad-7" x="10380" y="21920"/><use xlink:href="#WUjmOoWWfUto-o8JtdHt_pad-7" x="10380" y="19380"/><use xlink:href="#WUjmOoWWfUto-o8JtdHt_pad-7" x="10380" y="16840"/><use xlink:href="#WUjmOoWWfUto-o8JtdHt_pad-7" x="10380" y="14300"/><use xlink:href="#WUjmOoWWfUto-o8JtdHt_pad-7" x="10380" y="11760"/><use xlink:href="#WUjmOoWWfUto-o8JtdHt_pad-7" x="10380" y="9220"/><use xlink:href="#WUjmOoWWfUto-o8JtdHt_pad-7" x="25620" y="44780"/><use xlink:href="#WUjmOoWWfUto-o8JtdHt_pad-7" x="25620" y="42240"/><use xlink:href="#WUjmOoWWfUto-o8JtdHt_pad-7" x="25620" y="39700"/><use xlink:href="#WUjmOoWWfUto-o8JtdHt_pad-7" x="25620" y="37160"/><use xlink:href="#WUjmOoWWfUto-o8JtdHt_pad-7" x="25620" y="34620"/><use xlink:href="#WUjmOoWWfUto-o8JtdHt_pad-7" x="25620" y="32080"/><use xlink:href="#WUjmOoWWfUto-o8JtdHt_pad-7" x="25620" y="29540"/><use xlink:href="#WUjmOoWWfUto-o8JtdHt_pad-7" x="25620" y="27000"/><use xlink:href="#WUjmOoWWfUto-o8JtdHt_pad-7" x="25620" y="24460"/><use xlink:href="#WUjmOoWWfUto-o8JtdHt_pad-7" x="25620" y="21920"/><use xlink:href="#WUjmOoWWfUto-o8JtdHt_pad-7" x="25620" y="19380"/><use xlink:href="#WUjmOoWWfUto-o8JtdHt_pad-7" x="25620" y="16840"/><use xlink:href="#WUjmOoWWfUto-o8JtdHt_pad-7" x="25620" y="14300"/><use xlink:href="#WUjmOoWWfUto-o8JtdHt_pad-7" x="25620" y="11760"/><use xlink:href="#WUjmOoWWfUto-o8JtdHt_pad-7" x="25620" y="9220"/><path d="M 11227 3000 11233 3000 M 13773 3000 13767 3000 M 20727 3000 20733 3000 M 23267 3000 23273 3000" fill="none" stroke-width="1000"/><use xlink:href="#WUjmOoWWfUto-o8JtdHt_pad-9" x="29000" y="51000"/><use xlink:href="#WUjmOoWWfUto-o8JtdHt_pad-9" x="26460" y="51000"/><use xlink:href="#WUjmOoWWfUto-o8JtdHt_pad-9" x="29000" y="53540"/><use xlink:href="#WUjmOoWWfUto-o8JtdHt_pad-9" x="26460" y="53540"/><use xlink:href="#WUjmOoWWfUto-o8JtdHt_pad-9" x="29000" y="56080"/><use xlink:href="#WUjmOoWWfUto-o8JtdHt_pad-9" x="26460" y="56080"/><use xlink:href="#WUjmOoWWfUto-o8JtdHt_pad-9" x="29000" y="58620"/><use xlink:href="#WUjmOoWWfUto-o8JtdHt_pad-9" x="26460" y="58620"/><use xlink:href="#WUjmOoWWfUto-o8JtdHt_pad-10" x="19499" y="83000"/><use xlink:href="#WUjmOoWWfUto-o8JtdHt_pad-10" x="14501" y="83001"/><use xlink:href="#WUjmOoWWfUto-o8JtdHt_pad-10" x="17000" y="88000"/><use xlink:href="#WUjmOoWWfUto-o8JtdHt_pad-10" x="26001" y="75000"/><use xlink:href="#WUjmOoWWfUto-o8JtdHt_pad-10" x="30999" y="75001"/><use xlink:href="#WUjmOoWWfUto-o8JtdHt_pad-10" x="28500" y="80000"/><use xlink:href="#WUjmOoWWfUto-o8JtdHt_pad-11" x="20250" y="67250"/><use xlink:href="#WUjmOoWWfUto-o8JtdHt_pad-11" x="13750" y="67250"/><use xlink:href="#WUjmOoWWfUto-o8JtdHt_pad-11" x="13750" y="71750"/><use xlink:href="#WUjmOoWWfUto-o8JtdHt_pad-11" x="20250" y="71750"/><use xlink:href="#WUjmOoWWfUto-o8JtdHt_pad-11" x="13750" y="74750"/><use xlink:href="#WUjmOoWWfUto-o8JtdHt_pad-11" x="20250" y="74750"/><use xlink:href="#WUjmOoWWfUto-o8JtdHt_pad-11" x="20250" y="79250"/><use xlink:href="#WUjmOoWWfUto-o8JtdHt_pad-11" x="13750" y="79250"/><use xlink:href="#WUjmOoWWfUto-o8JtdHt_pad-11" x="2250" y="74750"/><use xlink:href="#WUjmOoWWfUto-o8JtdHt_pad-11" x="8750" y="74750"/><use xlink:href="#WUjmOoWWfUto-o8JtdHt_pad-11" x="8750" y="79250"/><use xlink:href="#WUjmOoWWfUto-o8JtdHt_pad-11" x="2250" y="79250"/><use xlink:href="#WUjmOoWWfUto-o8JtdHt_pad-12" x="5000" y="34620"/><use xlink:href="#WUjmOoWWfUto-o8JtdHt_pad-12" x="5000" y="19380"/></g><g id="HxRwrdzPqYnQLmd6FvdB_top_drill2"><use xlink:href="#vYFvpR1jYWTv1zT8oTfw_pad-1" x="31000" y="87000"/><use xlink:href="#vYFvpR1jYWTv1zT8oTfw_pad-1" x="3000" y="87000"/><use xlink:href="#vYFvpR1jYWTv1zT8oTfw_pad-1" x="31000" y="3000"/><use xlink:href="#vYFvpR1jYWTv1zT8oTfw_pad-1" x="3000" y="3000"/></g><clipPath id="HxRwrdzPqYnQLmd6FvdB_top_outline"><path d="M 0 74000.36 0 89999.81 34000.43 89999.81 34000.43 0 0 0 0 74000.36" fill="none" stroke-width="254"/></clipPath><mask id="HxRwrdzPqYnQLmd6FvdB_top_mech-mask"><g fill="#000" stroke="#000"><rect x="0" y="0" width="34000.43" height="89999.81" fill="#fff"/><use xlink:href="#HxRwrdzPqYnQLmd6FvdB_top_drill1"/><use xlink:href="#HxRwrdzPqYnQLmd6FvdB_top_drill2"/></g></mask><mask id="HxRwrdzPqYnQLmd6FvdB_top_cf-mask"><g fill="#fff" stroke="#fff"><use xlink:href="#HxRwrdzPqYnQLmd6FvdB_top_soldermask"/></g></mask><mask id="HxRwrdzPqYnQLmd6FvdB_top_sm-mask"><g fill="#000" stroke="#000"><rect x="0" y="0" width="34000.43" height="89999.81" fill="#fff"/><use xlink:href="#HxRwrdzPqYnQLmd6FvdB_top_soldermask"/></g></mask></defs><g transform="translate(0,89999.81) scale(1,-1)"><g mask="url(#HxRwrdzPqYnQLmd6FvdB_top_mech-mask)" clip-path="url(#HxRwrdzPqYnQLmd6FvdB_top_outline)"><rect x="0" y="0" width="34000.43" height="89999.81" fill="currentColor" class="HxRwrdzPqYnQLmd6FvdB_fr4"/><use xlink:href="#HxRwrdzPqYnQLmd6FvdB_top_copper" fill="currentColor" stroke="currentColor" class="HxRwrdzPqYnQLmd6FvdB_cu"/><use xlink:href="#HxRwrdzPqYnQLmd6FvdB_top_copper" fill="currentColor" stroke="currentColor" class="HxRwrdzPqYnQLmd6FvdB_cf" mask="url(#HxRwrdzPqYnQLmd6FvdB_top_cf-mask)"/><g mask="url(#HxRwrdzPqYnQLmd6FvdB_top_sm-mask)"><rect x="0" y="0" width="34000.43" height="89999.81" fill="currentColor" class="HxRwrdzPqYnQLmd6FvdB_sm"/><use xlink:href="#HxRwrdzPqYnQLmd6FvdB_top_silkscreen" fill="currentColor" stroke="currentColor" class="HxRwrdzPqYnQLmd6FvdB_ss"/></g></g></g></svg>